<?xml version="1.0" standalone="no"?>
<!DOCTYPE svg PUBLIC "-//W3C//DTD SVG 1.1//EN" "http://www.w3.org/Graphics/SVG/1.1/DTD/svg11.dtd" >
<svg xmlns="http://www.w3.org/2000/svg">
<metadata>Generated by IcoMoon</metadata>
<defs>
<font id="sparqons-5" horiz-adv-x="1024">
<font-face units-per-em="1024" ascent="960" descent="-64" />
<missing-glyph horiz-adv-x="1024" />
<glyph unicode="&#x20;" horiz-adv-x="512" d="" />
<glyph unicode="&#x63;" glyph-name="clipboard-check" d="M470.985 196.443q-15.039 0-25.292 10.254l-105.271 105.271q-15.039 15.039-15.039 35.546-0.684 20.507 14.355 35.546t35.546 14.355q20.507 0 35.546-14.355l60.155-60.155 165.426 164.742q15.039 15.039 35.546 15.039 20.507 0.684 35.546-14.355t14.355-35.546q0-20.507-15.039-36.23l-209.858-209.858q-10.937-10.254-25.976-10.254zM512 822.601q12.304-0.684 21.874 8.887t9.57 22.558-9.57 22.558-21.874 8.887q-12.304 0.684-21.874-8.887t-9.57-22.558 9.57-22.558 21.874-8.887zM689.047 895.060h172.262q36.913 0 54.686-31.445 8.203-14.355 8.203-31.445v-833.282q0-25.976-18.457-44.433t-44.433-18.457h-698.617q-25.976 0-44.433 18.457t-18.457 44.433v833.282q0 25.976 18.457 44.433t44.433 18.457h172.262v-47.167q0-25.976-25.292-37.597-7.519-3.418-15.722-3.418h-78.611q-10.937 0-19.14-8.203t-8.203-19.14v-728.011q0-11.621 8.203-19.824t19.14-7.519h593.346q10.937-0.684 19.14 7.519t8.203 19.824v728.011q0 17.089-9.57 21.874-9.57 5.469-17.773 5.469h-78.611q-17.089 0-29.394 12.304t-11.621 28.71v47.167zM746.467 660.593v-1.367q-0.684-17.773-11.621-24.609-10.937-6.152-19.14-6.152h-407.413q-17.773 0-23.925 10.937-6.836 10.937-6.836 19.824v1.367q0.684 46.483 36.23 77.244 16.406 14.355 39.648 20.507t37.597 25.292q15.039 19.14 15.039 43.749v28.027q0 44.433 30.761 74.51t73.826 30.077h2.051q43.065 0 73.826-30.077t30.761-74.51v-28.027q0-55.37 62.889-71.092 24.609-6.836 45.116-34.179t21.191-61.522z" />
<glyph unicode="&#x64;" glyph-name="clipboard-x" d="M671.274 209.431q0.684-16.406-11.621-28.71t-28.71-11.621q-16.406 0-29.394 11.621l-86.131 86.814q-3.418 3.418-6.836 0l-86.131-86.814q-12.988-11.621-29.394-11.621-16.406-0.684-28.71 11.621t-11.621 28.71q0 16.406 12.304 28.71l86.131 86.814q3.418 3.418 0 6.152l-86.131 86.814q-12.304 11.621-12.304 28.71-0.684 17.089 11.621 29.394t28.71 11.621q16.406 0 29.394-12.304l86.131-86.131q3.418-3.418 6.836 0l86.131 86.131q12.988 12.304 29.394 12.304 16.406 0.684 28.71-11.621t11.621-29.394q0-17.089-12.304-28.71l-86.131-86.814q-3.418-2.734 0-6.152l86.131-86.814q12.304-12.304 12.304-28.71zM512 822.601q12.304-0.684 21.874 8.887t9.57 22.558-9.57 22.558-21.874 8.887q-12.304 0.684-21.874-8.887t-9.57-22.558 9.57-22.558 21.874-8.887zM689.047 895.060h172.262q36.913 0 54.686-31.445 8.203-14.355 8.203-31.445v-833.282q0-25.976-18.457-44.433t-44.433-18.457h-698.617q-25.976 0-44.433 18.457t-18.457 44.433v833.282q0 25.976 18.457 44.433t44.433 18.457h172.262v-47.167q0-25.976-25.292-37.597-7.519-3.418-15.722-3.418h-78.611q-10.937 0-19.14-8.203t-8.203-19.14v-728.011q0-11.621 8.203-19.824t19.14-7.519h593.346q10.937-0.684 19.14 7.519t8.203 19.824v728.011q0 17.089-9.57 21.874-9.57 5.469-17.773 5.469h-78.611q-17.089 0-29.394 12.304t-11.621 28.71v47.167zM746.467 660.593v-1.367q-0.684-17.773-11.621-24.609-10.937-6.152-19.14-6.152h-407.413q-17.773 0-23.925 10.937-6.836 10.937-6.836 19.824v1.367q0.684 46.483 36.23 77.244 16.406 14.355 39.648 20.507t37.597 25.292q15.039 19.14 15.039 43.749v28.027q0 44.433 30.761 74.51t73.826 30.077h2.051q43.065 0 73.826-30.077t30.761-74.51v-28.027q0-55.37 62.889-71.092 24.609-6.836 45.116-34.179t21.191-61.522z" />
<glyph unicode="&#x69;" glyph-name="id-card-solid" d="M877.419 264.258v9.634q0 15.14-11.011 26.151t-26.151 11.011h-235.355q-14.452 0-25.462-11.011t-11.011-26.151v-9.634q0-14.452 11.011-25.462t25.462-11.011h235.355q15.14 0 26.151 11.011t11.011 25.462zM877.419 439.742v9.634q0 15.14-11.011 26.151t-26.151 11.011h-235.355q-14.452 0-25.462-11.011t-11.011-26.151v-9.634q0-15.14 11.011-26.151t25.462-10.323h235.355q15.14-0.688 26.151 10.323t11.011 26.151zM877.419 615.914v9.634q0 15.14-11.011 26.151t-26.151 11.011h-235.355q-14.452 0-25.462-11.011t-11.011-26.151v-9.634q0-15.14 11.011-26.151t25.462-10.323h235.355q15.14-0.688 26.151 10.323t11.011 26.151zM402.581 214.71q22.022 0.688 39.914 11.699t17.892 33.032q0.688 22.022-10.323 34.409t-26.151 19.269l-30.28 13.763q-36.473 17.204-36.473 45.419 0 27.527 22.71 59.183 43.355 60.559 43.355 111.484t-16.516 81.204q-33.032 59.871-105.978 59.871-52.989-0.688-87.398-35.097t-35.097-95.656q0.688-61.247 33.72-108.043 33.032-46.108 33.032-63.312t-5.505-27.527q-5.505-9.634-15.14-16.516t-20.645-12.387l-22.022-11.011t-26.151-15.14q-15.14-10.323-14.452-35.785 0-26.151 17.892-37.161t39.914-11.699h203.699zM66.753 830.624h890.495q28.215 0 47.484-19.269t19.269-46.796v-633.118q0-27.527-19.269-46.796t-47.484-19.269h-890.495q-28.215 0-47.484 19.269t-19.269 46.796v633.118q0 27.527 19.269 46.796t47.484 19.269z" />
<glyph unicode="&#x6c;" glyph-name="lock-closed" d="M391.026 649.325v-91.916q0-12.449 8.299-20.758t21.351-8.892h180.868q16.605 0 22.537 10.671 6.521 10.671 6.521 18.98v85.395q0 49.222-32.615 86.581t-82.431 39.729-87.174-33.208-37.357-86.581zM828.070 460.751v-377.15q0-27.279-19.573-47.44t-48.034-20.166h-496.938q-28.465 0-48.034 20.166t-19.573 47.44v377.15q0.593 34.986 29.058 55.152 13.042 9.485 26.687 11.263 28.465 3.557 28.465 27.279v92.509q0 64.044 32.022 118.010t87.174 84.802q54.559 30.836 110.297 29.058 103.772-3.557 169.002-74.715 64.637-71.158 64.637-166.631v-83.024q0-23.723 32.615-28.465 17.793-2.371 34.986-21.351t17.199-43.878z" />
<glyph unicode="&#x72;" glyph-name="bookmark" d="M450 262.5q-19.5 0-33-13.5l-123-123q-10.5-11-24-5t-13.5 20.5v661q-0.5 20.5 14.5 35.5t36 14.5h286q21 0.5 36-14.5t14.5-35.5v-661q0-14.5-13.5-20.5t-24 5l-123 123q-13.5 13.5-33 13.5z" />
<glyph unicode="&#x75;" glyph-name="lock-open" d="M817.133 428.292v-362.732q0-27.575-18.996-46.564t-46.564-18.996h-479.148q-27.575 0-46.564 18.996t-18.996 46.564v362.732q0 27.575 18.996 46.564t46.564 18.996h322.292q12.865 0 22.669 9.804t9.804 22.669v143.379q0 49.632-35.535 83.942t-84.555 31.249q-47.796-3.061-79.657-38.604t-31.249-83.33v-50.857q-0.612-12.865-9.192-21.445t-21.445-9.192h-47.18q-13.478 0.612-22.057 9.192t-8.58 21.445v55.755q0 118.865 101.101 187.493 62.498 42.89 131.738 36.148t115.803-39.828 72.302-84.555 25.732-109.061v-132.962q0.612-28.188 32.473-32.473 17.159-2.449 33.698-20.833t16.547-43.502z" />
<glyph unicode="&#xe601;" glyph-name="doc, document-alt-stroke" horiz-adv-x="768" d="M448 960h-448v-1024h768v704.064l-320 319.936zM128 64v768h256v-256h256v-512h-512z" />
<glyph unicode="&#xe602;" glyph-name="doc-fill, document-alt-fill" horiz-adv-x="768" d="M448 960h-448v-1024h768v704.064l-320 319.936zM381.376 576v256l256-256h-256z" />
<glyph unicode="&#xe603;" glyph-name="checkmark, check" d="M192 576l-192-192 384-384 640 640-192 192-448-448z" />
<glyph unicode="&#xe604;" glyph-name="check-alt, check-round" d="M512 960c-282.752 0-512-229.248-512-512s229.248-512 512-512 512 229.248 512 512-229.248 512-512 512zM432.64 211.744l-235.584 235.616 90.496 90.496 145.056-145.12 307.744 307.744 90.496-90.496-398.208-398.24z" />
<glyph unicode="&#xe605;" glyph-name="x, close" d="M960 179.264l-268.992 268.736 268.992 268.736-179.264 179.264-268.736-268.864-268.864 268.864-179.136-179.264 268.736-268.736-268.736-268.736 179.136-179.264 268.864 268.864 268.736-268.864z" />
<glyph unicode="&#xe606;" glyph-name="x-alt, x-solid-round" d="M512 960c-282.752 0-512-229.248-512-512s229.248-512 512-512 512 229.248 512 512-229.248 512-512 512zM765.248 285.248l-90.496-90.496-162.752 162.752-162.752-162.752-90.496 90.496 162.752 162.752-162.752 162.752 90.496 90.496 162.752-162.752 162.752 162.752 90.496-90.496-162.752-162.752 162.752-162.752z" />
<glyph unicode="&#xe607;" glyph-name="plus-alt" d="M512 960c-282.752 0-512-229.248-512-512s229.248-512 512-512 512 229.248 512 512-229.248 512-512 512zM768 384h-192v-192h-128v192h-192v128h192v192h128v-192h192v-128z" />
<glyph unicode="&#xe608;" glyph-name="plus" d="M1024 576h-384v384h-256v-384h-384v-256h384v-384h256v384h384z" />
<glyph unicode="&#xe609;" glyph-name="minus" d="M0 576h1024v-256h-1024z" />
<glyph unicode="&#xe60a;" glyph-name="minus-alt" d="M512 960c-282.752 0-512-229.248-512-512s229.248-512 512-512 512 229.248 512 512-229.248 512-512 512zM768 384h-512v128h512v-128z" />
<glyph unicode="&#xe60b;" glyph-name="play-alt" d="M512 960c-282.752 0-512-229.248-512-512s229.248-512 512-512 512 229.248 512 512-229.248 512-512 512zM320 192v512l512.256-256-512.256-256z" />
<glyph unicode="&#xe60c;" glyph-name="left-quote" d="M1024 64v384h-256c0 141.12 114.752 256 256 256v128c-211.744 0-384-172.256-384-384v-384h384zM384 64v384h-256c0 141.12 114.752 256 256 256v128c-211.744 0-384-172.256-384-384v-384h384z" />
<glyph unicode="&#xe60d;" glyph-name="right-quote" d="M0 832v-384h256c0-141.12-114.752-256-256-256v-128c211.744 0 384 172.256 384 384v384h-384zM640 832v-384h256c0-141.12-114.752-256-256-256v-128c211.744 0 384 172.256 384 384v384h-384z" />
<glyph unicode="&#xe60e;" glyph-name="youtube" d="M832 832h-640c-105.6 0-192-86.4-192-192v-384c0-105.6 86.4-192 192-192h640c105.6 0 192 86.4 192 192v384c0 105.6-86.4 192-192 192zM384 192v512l320-256-320-256z" />
<glyph unicode="&#xe60f;" glyph-name="add-circle-outline" d="M512 36.958q168.263 0 289.653 121.39t121.39 289.653-121.39 289.653-289.653 121.39-289.653-121.39-121.39-289.653 121.39-289.653 289.653-121.39zM512 960q211.531 0 361.765-150.235t150.235-361.765-150.235-361.765-361.765-150.235-361.765 150.235-150.235 361.765 150.235 361.765 361.765 150.235zM562.479 705.202v-206.723h206.723v-100.958h-206.723v-206.723h-100.958v206.723h-206.723v100.958h206.723v206.723h100.958z" />
<glyph unicode="&#xe610;" glyph-name="dollar" horiz-adv-x="585" d="M558.857 273.714q0-87.429-56.857-150.571t-147.714-78v-100q0-8-5.143-13.143t-13.143-5.143h-77.143q-7.429 0-12.857 5.429t-5.429 12.857v100q-37.714 5.143-72.857 17.714t-58 25.429-42.286 27.429-26.571 21.429-10 10.286q-9.714 12-1.143 23.429l58.857 77.143q4 5.714 13.143 6.857 8.571 1.143 13.714-5.143l1.143-1.143q64.571-56.571 138.857-71.429 21.143-4.571 42.286-4.571 46.286 0 81.429 24.571t35.143 69.714q0 16-8.571 30.286t-19.143 24-33.429 21.429-37.714 18.286-45.714 18.571q-22.286 9.143-35.143 14.286t-35.143 15.143-35.714 17.714-32.286 20.286-30.571 24.286-24.857 28-20.286 33.143-12 38-4.857 44.571q0 78.857 56 138.286t145.714 76.571v102.857q0 7.429 5.429 12.857t12.857 5.429h77.143q8 0 13.143-5.143t5.143-13.143v-100.571q32.571-3.429 63.143-13.143t49.714-19.143 36.286-21.429 22.286-16.571 8.571-8q9.714-10.286 2.857-21.714l-46.286-83.429q-4.571-8.571-13.143-9.143-8-1.714-15.429 4-1.714 1.714-8.286 6.857t-22.286 15.143-33.429 18.286-42.571 14.857-48.857 6.571q-54.286 0-88.571-24.571t-34.286-63.429q0-14.857 4.857-27.429t16.857-23.714 22.571-18.857 32-17.714 34.571-15.429 40-15.714q30.286-11.429 46.286-18t43.429-20 43.143-24.286 35.429-28.571 30.286-36.286 18-43.714 7.429-53.714z" />
<glyph unicode="&#xe612;" glyph-name="add-circle" d="M769.202 397.521v100.958h-206.723v206.723h-100.958v-206.723h-206.723v-100.958h206.723v-206.723h100.958v206.723h206.723zM512 960q211.531 0 361.765-150.235t150.235-361.765-150.235-361.765-361.765-150.235-361.765 150.235-150.235 361.765 150.235 361.765 361.765 150.235z" />
<glyph unicode="&#xe613;" glyph-name="radio-checked" d="M512 960c-282.77 0-512-229.23-512-512s229.23-512 512-512 512 229.23 512 512-229.23 512-512 512zM512 64c-212.078 0-384 171.922-384 384s171.922 384 384 384c212.078 0 384-171.922 384-384s-171.922-384-384-384zM320 448c0 106.039 85.961 192 192 192s192-85.961 192-192c0-106.039-85.961-192-192-192s-192 85.961-192 192z" />
<glyph unicode="&#xe614;" glyph-name="radio-unchecked" d="M512 960c-282.77 0-512-229.23-512-512s229.23-512 512-512 512 229.23 512 512-229.23 512-512 512zM512 64c-212.078 0-384 171.922-384 384s171.922 384 384 384c212.078 0 384-171.922 384-384s-171.922-384-384-384z" />
<glyph unicode="&#xe615;" glyph-name="alert-bell" d="M694.144 433.959v92.144h-137.144v137.144h-90v-137.144h-137.144v-92.144h137.144v-137.144h90v137.144h137.144zM827 260.388l96.429-96.429v-49.285h-822.856v49.285l96.429 96.429v265.715q0 109.285 68.571 196.071t173.571 110.356v32.144q0 30 21.429 51.429t51.429 21.429 51.429-21.429 21.429-51.429v-32.144q105-23.571 173.571-110.356t68.571-196.071v-265.715zM422 69.674h180q0-36.429-26.785-64.285t-63.215-27.856-63.215 27.856-26.785 64.285z" />
<glyph unicode="&#xe616;" glyph-name="arrow-back" d="M902 495.895v-95.79h-592.981l271.405-273.684-68.421-68.421-390 390 390 390 68.421-68.421-271.405-273.684h592.981z" />
<glyph unicode="&#xe617;" glyph-name="arrow-forward" d="M512 854l406-406-406-406-71.228 71.228 282.54 284.912h-617.308v99.72h617.308l-282.54 284.912z" />
<glyph unicode="&#xe618;" glyph-name="map" d="M0 768l320 128v-768l-320-128zM704 768v-768l-320 106.666v768zM1024 896v-768l-256-102.4v768z" />
<glyph unicode="&#xe619;" glyph-name="map2" d="M672 768l-320 128-352-128v-768l352 128 320-128 352 128v768l-352-128zM384 814.27l256-102.4v-630.138l-256 102.398v630.14zM64 723.172l256 93.090v-631.8l-256-93.088v631.798zM960 172.828l-256-93.092v631.8l256 93.090v-631.798z" />
<glyph unicode="&#xe61a;" glyph-name="backspace" d="M760.332 319.668l-126.668 128.332 126.668 128.332-50 50-126.668-128.332-128.332 128.332-50-50 128.332-128.332-128.332-128.332 50-50 128.332 128.332 126.668-128.332zM867 768q28.332 0 50-21.668t21.668-50v-496.668q0-28.332-21.668-50t-50-21.668h-533.332q-33.332 0-56.668 31.668l-191.668 288.332 191.668 288.332q23.332 31.668 56.668 31.668h533.332z" />
<glyph unicode="&#xe61b;" glyph-name="phone" d="M68.032 921.984c40.896 40.992 164.512 47.84 165.44 26.144 0.928-21.664 111.328-262.112 112.288-283.808 0.96-21.664-72.768-95.584-94.336-117.216-21.376-21.408 144.256-209.056 147.392-212.608 3.52-3.168 190.72-169.184 212.096-147.744 21.568 21.632 95.328 95.52 116.896 94.56 21.632-0.928 261.536-111.584 283.168-112.576 21.632-0.928 14.816-124.8-26.080-165.824-34.976-35.040-216.064-162.272-530.944 64.928-34.528 19.904-89.216 65.568-172.16 148.672-0.032 0.032-0.096 0.096-0.16 0.128-0.064 0.096-0.128 0.128-0.192 0.192s-0.128 0.128-0.192 0.192c-0.032 0.064-0.096 0.128-0.128 0.16-82.88 83.136-128.448 137.984-148.32 172.576-226.656 315.648-99.712 497.184-64.768 532.224z" />
<glyph unicode="&#xe61c;" glyph-name="play" d="M512-64c-282.75 0-512 229.25-512 512 0 282.782 229.25 512 512 512s512-229.218 512-512c0-282.75-229.25-512-512-512zM512 832c-212.062 0-384-171.938-384-384s171.938-384 384-384 384 171.938 384 384-171.938 384-384 384zM384 640l320-192-320-192v384z" />
<glyph unicode="&#xe61d;" glyph-name="band-aid1" d="M710 92l156 156-156 154-154-156zM598 490q-18 0-31-12t-13-30 13-30 31-12 30 12 12 30-12 30-30 12zM512 320q18 0 30 12t12 30-12 31-30 13-30-13-12-31 12-30 30-12zM426 406q18 0 31 12t13 30-13 30-31 12-30-12-12-30 12-30 30-12zM312 492l154 156-154 154-156-156zM512 576q-18 0-30-12t-12-30 12-31 30-13 30 13 12 31-12 30-30 12zM756 448l170-170q12-12 12-30t-12-30l-184-186q-12-12-30-12-20 0-32 12l-168 170-170-170q-12-12-30-12t-30 12l-186 186q-12 12-12 30t12 30l170 170-170 168q-12 12-12 31t12 31l186 184q12 12 30 12t30-12l170-170 168 170q12 12 31 12t31-12l184-184q12-12 12-31t-12-31z" />
<glyph unicode="&#xe61e;" glyph-name="search" horiz-adv-x="951" d="M658.286 475.428q0 105.714-75.143 180.857t-180.857 75.143-180.857-75.143-75.143-180.857 75.143-180.857 180.857-75.143 180.857 75.143 75.143 180.857zM950.857 0q0-29.714-21.714-51.429t-51.429-21.714q-30.857 0-51.429 21.714l-196 195.429q-102.286-70.857-228-70.857-81.714 0-156.286 31.714t-128.571 85.714-85.714 128.571-31.714 156.286 31.714 156.286 85.714 128.571 128.571 85.714 156.286 31.714 156.286-31.714 128.571-85.714 85.714-128.571 31.714-156.286q0-125.714-70.857-228l196-196q21.143-21.143 21.143-51.429z" />
<glyph unicode="&#xe61f;" glyph-name="network-1" d="M128 352h224v-320h-224v320zM384 576h224v-544h-224v544zM640 832h224v-800h-224v800z" />
<glyph unicode="&#xe620;" glyph-name="network-0, network-4" d="M352 288v-192h-160v192h160zM416 352h-288v-320h288v320zM576 512v-416h-160v416h160zM640 576h-288v-544h288v544zM800 768v-672h-160v672h160zM864 832h-288v-800h288v800z" />
<glyph unicode="&#xe621;" glyph-name="refresh" d="M752 384c0-141.376-114.624-256-256-256s-256 114.624-256 256c0 130.72 125.344 211.040 256 222.432v-158.432l320 224v32l-320 256v-161.344c-235.104-13.824-448-177.952-448-414.656 0-247.424 200.576-448 448-448s448 200.576 448 448h-192z" />
<glyph unicode="&#xe622;" glyph-name="filter" horiz-adv-x="805" d="M801.714 782.286q9.714-23.429-8-40l-281.714-281.714v-424q0-24-22.286-33.714-7.429-2.857-14.286-2.857-15.429 0-25.714 10.857l-146.286 146.286q-10.857 10.857-10.857 25.714v277.714l-281.714 281.714q-17.714 16.571-8 40 9.714 22.286 33.714 22.286h731.429q24 0 33.714-22.286z" />
<glyph unicode="&#xe623;" glyph-name="v-card" d="M921.6 870.4h-819.2c-56.32 0-102.4-46.080-102.4-102.4v-614.4c0-56.32 46.080-102.4 102.4-102.4h819.2c56.371 0 102.4 46.080 102.4 102.4v614.4c0 56.32-46.029 102.4-102.4 102.4zM921.6 153.6h-819.2v614.4h819.2v-614.4zM460.8 353.28h-256v-92.16h256v92.16zM460.8 506.88h-256v-92.16h256v92.16zM460.8 660.48h-256v-92.16h256v92.16zM814.080 332.8c0 0-87.040 22.733-87.040 67.482 0 42.598 56.371 60.518 56.371 147.558 0 70.656-21.504 112.64-92.211 112.64s-92.16-41.933-92.16-112.64c0-87.040 56.32-104.96 56.32-147.558 0-44.749-86.989-67.482-86.989-67.482-5.171 0-5.171-71.68-5.171-71.68h256c0 0 0 71.68-5.12 71.68z" />
<glyph unicode="&#xe624;" glyph-name="twitter" d="M983.040 752.998c-34.714-15.411-71.936-25.754-111.053-30.464 39.936 23.91 70.605 61.798 84.992 106.906-37.325-22.118-78.694-38.246-122.675-46.899-35.277 37.581-85.504 61.030-141.107 61.030-106.752 0-193.28-86.528-193.28-193.229 0-15.155 1.69-29.901 5.018-44.032-160.614 8.038-303.053 84.992-398.336 201.933-16.691-28.518-26.266-61.747-26.266-97.178 0-67.072 34.15-126.208 86.016-160.87-31.693 1.024-61.491 9.677-87.552 24.166 0-0.819 0-1.587 0-2.406 0-93.645 66.662-171.725 155.034-189.542-16.179-4.403-33.28-6.758-50.944-6.758-12.442 0-24.525 1.178-36.352 3.43 24.576-76.8 96-132.659 180.531-134.195-66.15-51.866-149.453-82.739-240.026-82.739-15.616 0-30.976 0.922-46.080 2.714 85.504-54.835 187.085-86.835 296.294-86.835 355.482 0 549.888 294.502 549.888 549.939 0 8.346-0.154 16.691-0.563 24.986 37.786 27.238 70.502 61.286 96.461 100.045z" />
<glyph unicode="&#xe625;" glyph-name="recognition, badge" d="M446.21 328.754l65.444 63.072 65.415-63.072 34.146 84.253 85.441-31.002-3.086 90.81 90.631 6.408-39.754 81.732 80.189 42.749-69.568 58.473 55.862 71.646-87.31 25.157 21.894 88.17-89.98-12.55-15.871 89.475-77.134-48.060-50.879 75.265-50.879-75.265-77.134 48.060-15.871-89.475-89.98 12.55 21.894-88.17-87.339-25.157 55.862-71.646-69.539-58.473 80.218-42.749-39.783-81.732 90.631-6.408-3.056-90.81 85.41 31.002 34.116-84.253zM635.461 358.232l-42.447-104.729-81.358 78.421-81.39-78.421-42.447 104.729-41.532-15.065-97.624-367.185 95.097 56.629 88.023-105.33 80.284 301.935 80.284-301.935 88.023 105.33 95.097-56.629-97.529 366.838-42.48 15.412z" />
<glyph unicode="&#xe626;" glyph-name="facebook" d="M768 761.395h-146.227c-17.306 0-36.608-22.733-36.608-53.197v-105.574h182.835v-150.528h-182.835v-452.096h-172.646v452.045h-156.518v150.579h156.518v88.576c0 127.027 88.166 230.4 209.203 230.4h146.278v-160.205z" />
<glyph unicode="&#xe627;" glyph-name="pdf" d="M842.012 370.52c-13.648 13.446-43.914 20.566-89.972 21.172-31.178 0.344-68.702-2.402-108.17-7.928-17.674 10.198-35.892 21.294-50.188 34.658-38.462 35.916-70.568 85.772-90.576 140.594 1.304 5.12 2.414 9.62 3.448 14.212 0 0 21.666 123.060 15.932 164.666-0.792 5.706-1.276 7.362-2.808 11.796l-1.882 4.834c-5.894 13.592-17.448 27.994-35.564 27.208l-10.916 0.344c-20.202 0-36.664-10.332-40.986-25.774-13.138-48.434 0.418-120.892 24.98-214.738l-6.288-15.286c-17.588-42.876-39.63-86.060-59.078-124.158l-2.528-4.954c-20.46-40.040-39.026-74.028-55.856-102.822l-17.376-9.188c-1.264-0.668-31.044-16.418-38.028-20.644-59.256-35.38-98.524-75.542-105.038-107.416-2.072-10.17-0.53-23.186 10.014-29.212l16.806-8.458c7.292-3.652 14.978-5.502 22.854-5.502 42.206 0 91.202 52.572 158.698 170.366 77.93 25.37 166.652 46.458 244.412 58.090 59.258-33.368 132.142-56.544 178.142-56.544 8.168 0 15.212 0.78 20.932 2.294 8.822 2.336 16.258 7.368 20.792 14.194 8.926 13.432 10.734 31.932 8.312 50.876-0.72 5.622-5.21 12.574-10.068 17.32zM211.646 145.952c7.698 21.042 38.16 62.644 83.206 99.556 2.832 2.296 9.808 8.832 16.194 14.902-47.104-75.124-78.648-105.066-99.4-114.458zM478.434 760.314c13.566 0 21.284-34.194 21.924-66.254s-6.858-54.56-16.158-71.208c-7.702 24.648-11.426 63.5-11.426 88.904 0 0-0.566 48.558 5.66 48.558v0zM398.852 322.506c9.45 16.916 19.282 34.756 29.33 53.678 24.492 46.316 39.958 82.556 51.478 112.346 22.91-41.684 51.444-77.12 84.984-105.512 4.186-3.542 8.62-7.102 13.276-10.65-68.21-13.496-127.164-29.91-179.068-49.862v0zM828.902 326.348c-4.152-2.598-16.052-4.1-23.708-4.1-24.708 0-55.272 11.294-98.126 29.666 16.468 1.218 31.562 1.838 45.102 1.838 24.782 0 32.12 0.108 56.35-6.072 24.228-6.18 24.538-18.734 20.382-21.332v0zM917.806 730.924c-22.21 30.292-53.174 65.7-87.178 99.704s-69.412 64.964-99.704 87.178c-51.574 37.82-76.592 42.194-90.924 42.194h-496c-44.112 0-80-35.888-80-80v-864c0-44.112 35.886-80 80-80h736c44.112 0 80 35.888 80 80v624c0 14.332-4.372 39.35-42.194 90.924v0zM785.374 785.374c30.7-30.7 54.8-58.398 72.58-81.374h-153.954v153.946c22.982-17.78 50.678-41.878 81.374-72.572v0zM896 16c0-8.672-7.328-16-16-16h-736c-8.672 0-16 7.328-16 16v864c0 8.672 7.328 16 16 16 0 0 495.956 0.002 496 0v-224c0-17.672 14.324-32 32-32h224v-624z" />
<glyph unicode="&#xe629;" glyph-name="bolt" d="M353.421 892h498.807l-368.445-377.873h283.43l-529.049-510.127 159.541 403.899-159.541-6.208 115.257 490.309z" />
<glyph unicode="&#xe62a;" glyph-name="chat2" d="M768 618v86h-512v-86h512zM598 362v86h-342v-86h342zM256 576v-86h512v86h-512zM854 874q34 0 59-25t25-59v-512q0-34-25-60t-59-26h-598l-170-170v768q0 34 25 59t59 25h684z" />
<glyph unicode="&#xe62b;" glyph-name="code" d="M622 252l198 196-198 196 60 60 256-256-256-256zM402 252l-60-60-256 256 256 256 60-60-198-196z" />
<glyph unicode="&#xe62c;" glyph-name="comment" d="M768 618v86h-512v-86h512zM768 490v86h-512v-86h512zM768 362v86h-512v-86h512zM938 790v-768l-170 170h-598q-34 0-59 26t-25 60v512q0 34 25 59t59 25h684q34 0 59-25t25-59z" />
<glyph unicode="&#xe62d;" glyph-name="font-sizer" d="M899.442 882.028h-79.282l-66.697-210.358 36.024-115.163h2.28l17.904 72.337h100.26l18.085-72.337h74.255l-102.829 325.521zM826.057 701.184l32.95 108.507h1.302l33.204-108.507h-67.456zM656.242 773.521h-109.99l-91.111-278.681 51.397-155.347h0.327l24.849 72.337h139.107l25.138-72.337h103.010l-142.724 434.028zM554.461 484.17l45.719 180.844h1.807l46.043-180.844h-93.569zM366.926 158.865h-177.878l-31.794-109.701h-131.8l182.184 564.31h140.698l182.546-564.31h-131.8l-32.153 109.701zM218.127 259.595h119.755l-58.92 201.933h-2.35l-58.485-201.933z" />
<glyph unicode="&#xe62e;" glyph-name="globe" d="M711.972 355.54h154.816q12.902 60.206 12.902 92.46t-12.902 92.46h-154.816q6.45-45.154 6.45-92.46t-6.45-92.46zM630.262 101.812q131.164 43.004 199.972 163.418h-135.464q-21.502-86.010-64.508-163.418zM619.512 355.54q6.45 45.154 6.45 92.46t-6.45 92.46h-215.024q-6.45-45.154-6.45-92.46t6.45-92.46h215.024zM512 82.46q60.206 88.16 88.16 182.77h-176.32q27.954-94.61 88.16-182.77zM329.23 630.77q21.502 86.010 64.508 163.418-131.164-43.004-199.972-163.418h135.464zM193.766 265.23q68.808-120.414 199.972-163.418-43.004 77.408-64.508 163.418h-135.464zM157.212 355.54h154.816q-6.45 45.154-6.45 92.46t6.45 92.46h-154.816q-12.902-60.206-12.902-92.46t12.902-92.46zM512 813.54q-60.206-88.16-88.16-182.77h176.32q-27.954 94.61-88.16 182.77zM830.234 630.77q-68.808 120.414-199.972 163.418 43.004-77.408 64.508-163.418h135.464zM512 906q189.22 0 323.61-134.39t134.39-323.61-134.39-323.61-323.61-134.39-323.61 134.39-134.39 323.61 134.39 323.61 323.61 134.39z" />
<glyph unicode="&#xe62f;" glyph-name="home" d="M426 106h-212v342h-128l426 384 426-384h-128v-342h-212v256h-172v-256z" />
<glyph unicode="&#xe630;" glyph-name="label-fill" d="M752 710l186-262-186-262q-26-36-70-36h-468q-34 0-60 25t-26 59v428q0 34 26 59t60 25h468q44 0 70-36z" />
<glyph unicode="&#xe631;" glyph-name="label-outline" d="M682 234l152 214-152 214h-468v-428h468zM752 710l186-262-186-262q-26-36-70-36h-468q-34 0-60 25t-26 59v428q0 34 26 59t60 25h468q44 0 70-36z" />
<glyph unicode="&#xe632;" glyph-name="map-fold" d="M640 150v506l-256 90v-506zM874 832q22 0 22-22v-644q0-16-16-20l-240-82-256 90-228-88-6-2q-22 0-22 22v644q0 16 16 20l240 82 256-90 228 88z" />
<glyph unicode="&#xe633;" glyph-name="menu, hamburger" d="M56 752h912v-102.125h-912v102.125zM56 398.125v99.75h912v-99.75h-912zM56 144v102.125h912v-102.125h-912z" />
<glyph unicode="&#xe634;" glyph-name="new-release" d="M554 406v256h-84v-256h84zM554 234v86h-84v-86h84zM982 448l-104-118 14-158-154-34-80-136-146 62-146-62-80 134-154 36 14 158-104 118 104 120-14 156 154 34 80 136 146-62 146 62 80-136 154-34-14-158z" />
<glyph unicode="&#xe635;" glyph-name="pill" d="M874.072 810.024c-99.84 99.8-262.232 99.8-362.112 0l-361.984-362.024c-99.8-99.84-99.84-262.232 0-362.024s262.184-99.8 362.024 0l362.072 362.024c99.752 99.84 99.84 262.232 0 362.024zM813.736 749.696c66.52-66.56 66.52-174.848 0-241.368l-181.080-180.992-241.32 241.32 180.992 181.032c66.6 66.56 174.848 66.56 241.408 0z" />
<glyph unicode="&#xe636;" glyph-name="prescription, rx" d="M899.25 737.532h-773.848c-32.68 0-59.288 26.616-59.288 59.288v100.308c0 32.68 26.616 59.26 59.288 59.26h773.848c32.68 0 59.296-26.581 59.296-59.26v-100.317c0-32.68-26.616-59.288-59.296-59.288zM125.41 899.237l-2.139-102.42h778.124v100.308l-775.987 2.104zM186.241 934.519h71.924v-177.691h-71.924v177.691zM292.008 900.673h71.924v-143.845h-71.924v143.845zM173.55 794.906v-801.77c0-32.68 24.722-61.273 57.39-61.273h562.762c32.68 0 60.965 28.594 60.965 61.273v801.77h-681.129zM727.757 96.862h-47.158c-34.242 0-44.694 7.51-57.465 31.299l-41.372 72.438-71.525-103.746h-87.095v55.001h58.647l69.622 101.554-80 139.566c-8.709 15.669-16.247 21.183-40.044 21.183h-37.825v-101.535h46.534v-55.001h-173.459v55.001h50.766v296.148h-50.766v59.233h183.322c30.18 0 54.676-1.831 77.888-8.792 45.849-15.092 75.57-52.32 75.57-110.37 0-57.465-27.95-98.097-78.719-114.341v-1.163c0 0 13.123-6.517 21.254-21.606l52.743-89.738 49.124 71.011h71.489v-55.001h-42.464l-47.645-68.475 58.394-100.57c5.802-10.453 13.934-12.878 27.862-12.878h12.32v-59.233zM495.8 600.276c-11.616 5.225-27.285 8.492-46.435 8.492h-55.82v-135.381h68.594c40.055 0 66.174 24.845 66.174 68.954 0 26.707-9.875 48.646-32.501 57.932z" />
<glyph unicode="&#xe637;" glyph-name="minus-circle" d="M512 36.958q168.263 0 289.653 121.39t121.39 289.653-121.39 289.653-289.653 121.39-289.653-121.39-121.39-289.653 121.39-289.653 289.653-121.39zM512 960q211.531 0 361.765-150.235t150.235-361.765-150.235-361.765-361.765-150.235-361.765 150.235-150.235 361.765 150.235 361.765 361.765 150.235zM254.798 498.479h514.404v-100.958h-514.404v100.958z" />
<glyph unicode="&#xe638;" glyph-name="remove-circle" d="M769.202 397.521v100.958h-514.404v-100.958h514.404zM512 960q211.531 0 361.765-150.235t150.235-361.765-150.235-361.765-361.765-150.235-361.765 150.235-150.235 361.765 150.235 361.765 361.765 150.235z" />
<glyph unicode="&#xe639;" glyph-name="search2" d="M387.812 347.244q93.728 0 159.336 65.608t65.608 159.336-65.608 159.336-159.336 65.608-159.336-65.608-65.608-159.336 65.608-159.336 159.336-65.608zM687.736 347.244l248.376-248.376-74.98-74.98-248.376 248.376v39.832l-14.060 14.060q-89.040-77.324-210.884-77.324-135.904 0-230.8 93.728t-94.9 229.632 94.9 230.8 230.8 94.9 229.632-94.9 93.728-230.8q0-121.844-77.324-210.884l14.060-14.060h39.832z" />
<glyph unicode="&#xe63a;" glyph-name="tag-heart" d="M736 308q32 32 32 76t-31 75-75 31q-46 0-76-30l-32-32-30 32q-30 30-76 30-44 0-75-31t-31-75q0-46 30-76l182-182zM234 662q26 0 45 19t19 45-19 45-45 19-45-19-19-45 19-45 45-19zM914 466q24-24 24-60t-24-60l-300-300q-24-24-60-24t-60 24l-384 384q-24 24-24 60v300q0 34 25 59t59 25h300q36 0 60-24z" />
<glyph unicode="&#xe63d;" glyph-name="help, question" d="M505.754 931.789c-260.147-3.482-468.224-217.19-464.742-477.338 3.482-259.994 217.19-468.122 477.338-464.64 260.045 3.482 468.173 217.19 464.64 477.338-3.43 260.045-217.139 468.122-477.235 464.64zM504.371 174.080h-2.611c-40.038 1.178-68.301 30.72-67.174 70.195 1.126 38.758 30.054 66.97 68.813 66.97l2.355-0.051c41.165-1.229 69.12-30.464 67.891-71.066-1.126-38.861-29.645-66.048-69.274-66.048zM672.87 508.518c-9.472-13.363-30.157-30.003-56.269-50.33l-28.774-19.866c-15.77-12.288-25.293-23.808-28.826-35.123-2.867-9.011-4.198-11.315-4.454-29.491l-0.051-4.659h-109.722l0.307 9.318c1.331 38.195 2.304 60.621 18.125 79.206 24.832 29.133 79.616 64.41 81.92 65.894 7.834 5.939 14.438 12.646 19.405 19.814 11.52 15.872 16.589 28.416 16.589 40.653 0 17.050-5.069 32.819-15.053 46.848-9.626 13.568-27.904 20.429-54.323 20.429-26.214 0-44.134-8.346-54.886-25.395-11.11-17.562-16.64-35.942-16.64-54.784v-4.71h-113.152l0.205 4.915c2.918 69.325 27.648 119.194 73.523 148.326 28.774 18.586 64.614 27.955 106.394 27.955 54.733 0 101.018-13.312 137.37-39.526 36.864-26.573 55.552-66.406 55.552-118.323 0-29.082-9.165-56.371-27.238-81.152z" />
<glyph unicode="&#xe63e;" glyph-name="info-ital" d="M505.702 931.789c-260.096-3.482-468.173-217.19-464.691-477.338 3.482-259.994 217.19-468.122 477.286-464.64s468.173 217.19 464.691 477.338c-3.43 260.045-217.19 468.122-477.286 464.64zM557.926 774.81c47.872 0 62.003-27.75 62.003-59.546 0-39.68-31.795-76.39-86.016-76.39-45.363 0-66.918 22.835-65.638 60.518 0 31.795 26.624 75.418 89.651 75.418zM435.149 166.4c-32.717 0-56.678 19.866-33.792 107.213l37.53 154.829c6.502 24.832 7.578 34.765 0 34.765-9.779 0-52.275-17.152-77.414-34.048l-16.333 26.778c79.616 66.458 171.162 105.472 210.381 105.472 32.717 0 38.144-38.707 21.811-98.253l-43.008-162.816c-7.578-28.774-4.301-38.707 3.277-38.707 9.779 0 41.984 11.878 73.626 36.762l18.483-24.832c-77.363-77.363-161.792-107.162-194.56-107.162z" />
<glyph unicode="&#xe63f;" glyph-name="grid" d="M292.571 237.714v-109.714q0-22.857-16-38.857t-38.857-16h-182.857q-22.857 0-38.857 16t-16 38.857v109.714q0 22.857 16 38.857t38.857 16h182.857q22.857 0 38.857-16t16-38.857zM292.571 530.286v-109.714q0-22.857-16-38.857t-38.857-16h-182.857q-22.857 0-38.857 16t-16 38.857v109.714q0 22.857 16 38.857t38.857 16h182.857q22.857 0 38.857-16t16-38.857zM658.286 237.714v-109.714q0-22.857-16-38.857t-38.857-16h-182.857q-22.857 0-38.857 16t-16 38.857v109.714q0 22.857 16 38.857t38.857 16h182.857q22.857 0 38.857-16t16-38.857zM292.571 822.857v-109.714q0-22.857-16-38.857t-38.857-16h-182.857q-22.857 0-38.857 16t-16 38.857v109.714q0 22.857 16 38.857t38.857 16h182.857q22.857 0 38.857-16t16-38.857zM658.286 530.286v-109.714q0-22.857-16-38.857t-38.857-16h-182.857q-22.857 0-38.857 16t-16 38.857v109.714q0 22.857 16 38.857t38.857 16h182.857q22.857 0 38.857-16t16-38.857zM1024 237.714v-109.714q0-22.857-16-38.857t-38.857-16h-182.857q-22.857 0-38.857 16t-16 38.857v109.714q0 22.857 16 38.857t38.857 16h182.857q22.857 0 38.857-16t16-38.857zM658.286 822.857v-109.714q0-22.857-16-38.857t-38.857-16h-182.857q-22.857 0-38.857 16t-16 38.857v109.714q0 22.857 16 38.857t38.857 16h182.857q22.857 0 38.857-16t16-38.857zM1024 530.286v-109.714q0-22.857-16-38.857t-38.857-16h-182.857q-22.857 0-38.857 16t-16 38.857v109.714q0 22.857 16 38.857t38.857 16h182.857q22.857 0 38.857-16t16-38.857zM1024 822.857v-109.714q0-22.857-16-38.857t-38.857-16h-182.857q-22.857 0-38.857 16t-16 38.857v109.714q0 22.857 16 38.857t38.857 16h182.857q22.857 0 38.857-16t16-38.857z" />
<glyph unicode="&#xe641;" glyph-name="calendar" horiz-adv-x="951" d="M73.143 0h164.571v164.571h-164.571v-164.571zM274.286 0h182.857v164.571h-182.857v-164.571zM73.143 201.143h164.571v182.857h-164.571v-182.857zM274.286 201.143h182.857v182.857h-182.857v-182.857zM73.143 420.571h164.571v164.571h-164.571v-164.571zM493.714 0h182.857v164.571h-182.857v-164.571zM274.286 420.571h182.857v164.571h-182.857v-164.571zM713.143 0h164.571v164.571h-164.571v-164.571zM493.714 201.143h182.857v182.857h-182.857v-182.857zM292.571 694.857v164.571q0 7.429-5.429 12.857t-12.857 5.429h-36.571q-7.429 0-12.857-5.429t-5.429-12.857v-164.571q0-7.429 5.429-12.857t12.857-5.429h36.571q7.429 0 12.857 5.429t5.429 12.857zM713.143 201.143h164.571v182.857h-164.571v-182.857zM493.714 420.571h182.857v164.571h-182.857v-164.571zM713.143 420.571h164.571v164.571h-164.571v-164.571zM731.429 694.857v164.571q0 7.429-5.429 12.857t-12.857 5.429h-36.571q-7.429 0-12.857-5.429t-5.429-12.857v-164.571q0-7.429 5.429-12.857t12.857-5.429h36.571q7.429 0 12.857 5.429t5.429 12.857zM950.857 731.428v-731.429q0-29.714-21.714-51.429t-51.429-21.714h-804.571q-29.714 0-51.429 21.714t-21.714 51.429v731.429q0 29.714 21.714 51.429t51.429 21.714h73.143v54.857q0 37.714 26.857 64.571t64.571 26.857h36.571q37.714 0 64.571-26.857t26.857-64.571v-54.857h219.429v54.857q0 37.714 26.857 64.571t64.571 26.857h36.571q37.714 0 64.571-26.857t26.857-64.571v-54.857h73.143q29.714 0 51.429-21.714t21.714-51.429z" />
<glyph unicode="&#xe642;" glyph-name="medkit" d="M731.429 310.857v109.714q0 8-5.143 13.143t-13.143 5.143h-128v128q0 8-5.143 13.143t-13.143 5.143h-109.714q-8 0-13.143-5.143t-5.143-13.143v-128h-128q-8 0-13.143-5.143t-5.143-13.143v-109.714q0-8 5.143-13.143t13.143-5.143h128v-128q0-8 5.143-13.143t13.143-5.143h109.714q8 0 13.143 5.143t5.143 13.143v128h128q8 0 13.143 5.143t5.143 13.143zM365.714 731.428h292.571v73.143h-292.571v-73.143zM146.286 731.428v-731.429h-18.286q-52.571 0-90.286 37.714t-37.714 90.286v475.429q0 52.571 37.714 90.286t90.286 37.714h18.286zM822.857 731.428v-731.429h-621.714v731.429h91.429v91.429q0 22.857 16 38.857t38.857 16h329.143q22.857 0 38.857-16t16-38.857v-91.429h91.429zM1024 603.428v-475.429q0-52.571-37.714-90.286t-90.286-37.714h-18.286v731.429h18.286q52.571 0 90.286-37.714t37.714-90.286z" />
<glyph unicode="&#xe643;" glyph-name="hospital, facility" horiz-adv-x="805" d="M219.429 201.143v-36.571c0-4.952-1.81-9.238-5.429-12.857s-7.905-5.429-12.857-5.429h-36.571c-4.952 0-9.238 1.81-12.857 5.429s-5.429 7.905-5.429 12.857v36.571c0 4.952 1.81 9.238 5.429 12.857s7.905 5.429 12.857 5.429h36.571c4.952 0 9.238-1.81 12.857-5.429s5.429-7.905 5.429-12.857v0zM219.429 347.428v-36.571c0-4.952-1.81-9.238-5.429-12.857s-7.905-5.429-12.857-5.429h-36.571c-4.952 0-9.238 1.81-12.857 5.429s-5.429 7.905-5.429 12.857v36.571c0 4.952 1.81 9.238 5.429 12.857s7.905 5.429 12.857 5.429h36.571c4.952 0 9.238-1.81 12.857-5.429s5.429-7.905 5.429-12.857v0zM365.714 347.428v-36.571c0-4.952-1.81-9.238-5.429-12.857s-7.905-5.429-12.857-5.429h-36.571c-4.952 0-9.238 1.81-12.857 5.429s-5.429 7.905-5.429 12.857v36.571c0 4.952 1.81 9.238 5.429 12.857s7.905 5.429 12.857 5.429h36.571c4.952 0 9.238-1.81 12.857-5.429s5.429-7.905 5.429-12.857v0zM219.429 493.714v-36.571c0-4.952-1.81-9.238-5.429-12.857s-7.905-5.429-12.857-5.429h-36.571c-4.952 0-9.238 1.81-12.857 5.429s-5.429 7.905-5.429 12.857v36.571c0 4.952 1.81 9.238 5.429 12.857s7.905 5.429 12.857 5.429h36.571c4.952 0 9.238-1.81 12.857-5.429s5.429-7.905 5.429-12.857v0zM658.286 201.143v-36.571c0-4.952-1.81-9.238-5.429-12.857s-7.905-5.429-12.857-5.429h-36.571c-4.952 0-9.238 1.81-12.857 5.429s-5.429 7.905-5.429 12.857v36.571c0 4.952 1.81 9.238 5.429 12.857s7.905 5.429 12.857 5.429h36.571c4.952 0 9.238-1.81 12.857-5.429s5.429-7.905 5.429-12.857v0zM512 347.428v-36.571c0-4.952-1.81-9.238-5.429-12.857s-7.905-5.429-12.857-5.429h-36.571c-4.952 0-9.238 1.81-12.857 5.429s-5.429 7.905-5.429 12.857v36.571c0 4.952 1.81 9.238 5.429 12.857s7.905 5.429 12.857 5.429h36.571c4.952 0 9.238-1.81 12.857-5.429s5.429-7.905 5.429-12.857v0zM365.714 493.714v-36.571c0-4.952-1.81-9.238-5.429-12.857s-7.905-5.429-12.857-5.429h-36.571c-4.952 0-9.238 1.81-12.857 5.429s-5.429 7.905-5.429 12.857v36.571c0 4.952 1.81 9.238 5.429 12.857s7.905 5.429 12.857 5.429h36.571c4.952 0 9.238-1.81 12.857-5.429s5.429-7.905 5.429-12.857v0zM658.286 347.428v-36.571c0-4.952-1.81-9.238-5.429-12.857s-7.905-5.429-12.857-5.429h-36.571c-4.952 0-9.238 1.81-12.857 5.429s-5.429 7.905-5.429 12.857v36.571c0 4.952 1.81 9.238 5.429 12.857s7.905 5.429 12.857 5.429h36.571c4.952 0 9.238-1.81 12.857-5.429s5.429-7.905 5.429-12.857v0zM512 493.714v-36.571c0-4.952-1.81-9.238-5.429-12.857s-7.905-5.429-12.857-5.429h-36.571c-4.952 0-9.238 1.81-12.857 5.429s-5.429 7.905-5.429 12.857v36.571c0 4.952 1.81 9.238 5.429 12.857s7.905 5.429 12.857 5.429h36.571c4.952 0 9.238-1.81 12.857-5.429s5.429-7.905 5.429-12.857v0zM658.286 493.714v-36.571c0-4.952-1.81-9.238-5.429-12.857s-7.905-5.429-12.857-5.429h-36.571c-4.952 0-9.238 1.81-12.857 5.429s-5.429 7.905-5.429 12.857v36.571c0 4.952 1.81 9.238 5.429 12.857s7.905 5.429 12.857 5.429h36.571c4.952 0 9.238-1.81 12.857-5.429s5.429-7.905 5.429-12.857v0zM512 0h219.429v658.286h-146.286v-18.286c0-15.238-5.333-28.19-16-38.857s-23.619-16-38.857-16h-256c-15.238 0-28.19 5.333-38.857 16s-16 23.619-16 38.857v18.286h-146.286v-658.286h219.429v128c0 4.952 1.81 9.238 5.429 12.857s7.905 5.429 12.857 5.429h182.857c4.952 0 9.238-1.81 12.857-5.429s5.429-7.905 5.429-12.857v-128zM365.714 804.571h-61.731c-6.311 0-11.412-5.117-11.412-11.429v-50.286c0-6.314 5.109-11.429 11.412-11.429h61.731v-61.731c0-6.311 5.117-11.412 11.429-11.412h50.286c6.314 0 11.429 5.109 11.429 11.412v61.731h61.731c6.311 0 11.412 5.117 11.412 11.429v50.286c0 6.314-5.109 11.429-11.412 11.429h-61.731v61.731c0 6.311-5.117 11.412-11.429 11.412h-50.286c-6.314 0-11.429-5.109-11.429-11.412v-61.731zM804.571 694.857v-731.429c0-9.905-3.619-18.476-10.857-25.714s-15.81-10.857-25.714-10.857h-731.429c-9.905 0-18.476 3.619-25.714 10.857s-10.857 15.81-10.857 25.714v731.429c0 9.905 3.619 18.476 10.857 25.714s15.81 10.857 25.714 10.857h182.857v164.571c0 15.238 5.333 28.19 16 38.857s23.619 16 38.857 16h256c15.238 0 28.19-5.333 38.857-16s16-23.619 16-38.857v-164.571h182.857c9.905 0 18.476-3.619 25.714-10.857s10.857-15.81 10.857-25.714z" />
<glyph unicode="&#xe644;" glyph-name="user-md" horiz-adv-x="805" d="M219.429 182.857q0-14.857-10.857-25.714t-25.714-10.857-25.714 10.857-10.857 25.714 10.857 25.714 25.714 10.857 25.714-10.857 10.857-25.714zM804.571 148q0-69.143-41.714-108.571t-110.857-39.429h-499.429q-69.143 0-110.857 39.429t-41.714 108.571q0 38.857 3.143 74.857t13.714 78.857 27.143 75.714 46.286 58.857 68.571 34.571q-12.571-29.714-12.571-68.571v-116q-33.143-11.429-53.143-40t-20-63.429q0-45.714 32-77.714t77.714-32 77.714 32 32 77.714q0 34.857-20.286 63.429t-52.857 40v116q0 35.429 14.286 53.143 75.429-59.429 168.571-59.429t168.571 59.429q14.286-17.714 14.286-53.143v-36.571q-60.571 0-103.429-42.857t-42.857-103.429v-50.857q-18.286-16.571-18.286-40.571 0-22.857 16-38.857t38.857-16 38.857 16 16 38.857q0 24-18.286 40.571v50.857q0 29.714 21.714 51.429t51.429 21.714 51.429-21.714 21.714-51.429v-50.857q-18.286-16.571-18.286-40.571 0-22.857 16-38.857t38.857-16 38.857 16 16 38.857q0 24-18.286 40.571v50.857q0 38.857-19.714 72.857t-53.429 53.429q0 5.714 0.286 24.286t0 27.429-1.429 23.714-4 26.857-7.429 22.857q38.857-8.571 68.571-34.571t46.286-58.857 27.143-75.714 13.714-78.857 3.143-74.857zM621.714 658.286q0-90.857-64.286-155.143t-155.143-64.286-155.143 64.286-64.286 155.143 64.286 155.143 155.143 64.286 155.143-64.286 64.286-155.143z" />
<glyph unicode="&#xe645;" glyph-name="h-sign" horiz-adv-x="878" d="M731.429 182.857v512q0 14.857-10.857 25.714t-25.714 10.857h-73.143q-14.857 0-25.714-10.857t-10.857-25.714v-182.857h-292.571v182.857q0 14.857-10.857 25.714t-25.714 10.857h-73.143q-14.857 0-25.714-10.857t-10.857-25.714v-512q0-14.857 10.857-25.714t25.714-10.857h73.143q14.857 0 25.714 10.857t10.857 25.714v182.857h292.571v-182.857q0-14.857 10.857-25.714t25.714-10.857h73.143q14.857 0 25.714 10.857t10.857 25.714zM877.714 713.143v-548.571q0-68-48.286-116.286t-116.286-48.286h-548.571q-68 0-116.286 48.286t-48.286 116.286v548.571q0 68 48.286 116.286t116.286 48.286h548.571q68 0 116.286-48.286t48.286-116.286z" />
<glyph unicode="&#xe646;" glyph-name="network-2" d="M128 352h224v-320h-224v320zM384 576h256v-544h-256v544zM800 768v-672h-160v672h160zM864 832h-288v-800h288v800z" />
<glyph unicode="&#xe647;" glyph-name="network-3" d="M128 352h256v-320h-256v320zM576 512v-416h-160v416h160zM640 576h-288v-544h288v544zM800 768v-672h-160v672h160zM864 832h-288v-800h288v800z" />
<glyph unicode="&#xe648;" glyph-name="heart" d="M1024 601.844c0-86.362-37.218-164.030-96.49-217.844h0.49l-320-320c-32-32-64-64-96-64s-64 32-96 64l-319.51 320c-59.272 53.814-96.49 131.482-96.49 217.844 0 162.458 131.698 294.156 294.156 294.156 86.362 0 164.030-37.218 217.844-96.49 53.814 59.272 131.482 96.49 217.844 96.49 162.456 0 294.156-131.698 294.156-294.156z" />
<glyph unicode="&#xe649;" glyph-name="share" d="M768 307.2c-35.226 0-67.482-11.93-93.389-31.846l-267.213 160.307c1.28 8.192 2.202 16.589 2.202 25.139 0 8.602-0.922 16.947-2.202 25.139l267.213 160.307c25.907-19.917 58.163-31.846 93.389-31.846 84.787 0 153.6 68.762 153.6 153.6s-68.813 153.6-153.6 153.6-153.6-68.762-153.6-153.6c0-8.55 0.922-16.947 2.253-25.139l-267.213-160.358c-25.907 19.968-58.214 31.898-93.44 31.898-84.838 0-153.6-68.762-153.6-153.6 0-84.787 68.762-153.6 153.6-153.6 35.226 0 67.533 11.93 93.44 31.846l267.213-160.307c-1.331-8.192-2.253-16.538-2.253-25.139 0-84.787 68.813-153.6 153.6-153.6s153.6 68.813 153.6 153.6-68.813 153.6-153.6 153.6z" />
<glyph unicode="&#xe64a;" glyph-name="heart-broken" d="M1024 601.844c0-86.362-37.218-164.030-96.49-217.844h0.49l-320-320c-32-32-64-64-96-64s-64 32-96 64l-319.51 320c-59.272 53.814-96.49 131.482-96.49 217.844 0 162.458 131.698 294.156 294.156 294.156 55.45 0 107.302-15.364 151.572-42.036l-93.728-149.964 224-128-128-320 352 384-224 128 78.892 118.34c23.932 6.288 49.046 9.66 74.952 9.66 162.456 0 294.156-131.698 294.156-294.156z" />
<glyph unicode="&#xe64b;" glyph-name="quality-q-sm" d="M506.624 625.76c-100.16 0-163.936-76.48-163.936-178.816 0-101.664 63.776-178.816 163.936-178.816 25.984 0 48.928 5.184 69.696 14.848l-76.8 91.104 60.096 49.728 76.768-91.104c22.304 30.432 34.176 70.496 34.176 114.304 0 102.304-64.576 178.752-163.936 178.752zM944.096 394.272c-22.464 29.568-22.464 77.92 0 107.488l18.368 24.16c22.464 29.568 12.832 65.504-21.408 79.872l-27.968 11.744c-34.24 14.368-58.432 56.256-53.76 93.088l3.808 30.112c4.672 36.832-21.632 63.136-58.464 58.464l-30.112-3.808c-36.832-4.672-78.72 19.52-93.088 53.728l-11.712 27.968c-14.368 34.24-50.304 43.872-79.872 21.408l-24.128-18.4c-29.568-22.464-77.92-22.464-107.488 0l-24.16 18.368c-29.568 22.464-65.504 12.832-79.872-21.408l-11.744-27.968c-14.368-34.24-56.256-58.432-93.088-53.728l-30.112 3.808c-36.832 4.672-63.136-21.632-58.464-58.464l3.808-30.112c4.672-36.832-19.52-78.72-53.76-93.088l-27.968-11.744c-34.24-14.368-43.872-50.304-21.408-79.872l18.368-24.16c22.464-29.568 22.464-77.92 0-107.488l-18.368-24.16c-22.464-29.568-12.832-65.504 21.408-79.872l27.968-11.744c34.24-14.368 58.432-56.256 53.76-93.088l-3.808-30.112c-4.672-36.832 21.632-63.136 58.464-58.464l30.112 3.808c36.832 4.672 78.72-19.52 93.088-53.76l11.744-27.968c14.368-34.24 50.304-43.872 79.872-21.408l24.16 18.368c29.568 22.464 77.92 22.464 107.488 0l24.16-18.368c29.568-22.464 65.504-12.832 79.872 21.408l11.744 27.968c14.368 34.24 56.256 58.432 93.088 53.76l30.112-3.808c36.832-4.672 63.136 21.632 58.464 58.464l-3.808 30.112c-4.672 36.832 19.52 78.72 53.76 93.088l27.968 11.744c34.24 14.368 43.872 50.304 21.408 79.872l-18.432 24.192zM700.928 148.48l-69.728 72.192c-35.584-19.328-77.856-29.728-124.576-29.728-148.416 0-252.992 108.384-252.992 256 0 147.648 104.576 255.872 252.992 255.872 148.352 0 252.992-108.256 252.992-255.872 0-71.296-24.512-132.768-66.080-178.080l67.488-70.016-60.096-50.368z" />
<glyph unicode="&#xe64c;" glyph-name="telehealth" d="M768-64v192h-192zM864 896h-704c-53.024 0-96-42.976-96-96v-576c0-53.024 42.976-96 96-96h704c53.024 0 96 42.976 96 96v576c0 53.024-42.976 96-96 96zM505.344 754.656c67.008 0 121.344-54.336 121.344-121.344s-54.336-121.312-121.344-121.312c-67.008 0-121.344 54.336-121.344 121.344s54.336 121.312 121.344 121.312zM800 288h-576v64h0.48c2.528 53.376 46.24 96 100.256 96h374.528c54.016 0 97.728-42.624 100.256-96h0.48v-64z" />
<glyph unicode="&#xe64d;" glyph-name="bubbles" horiz-adv-x="1152" d="M480 832c-50.666 0-99.582-7.95-145.386-23.628-42.924-14.694-81.114-35.436-113.502-61.646-60.044-48.59-93.112-110.802-93.112-175.174 0-35.99 10.066-70.948 29.92-103.898 20.686-34.34 51.898-65.794 90.26-90.958 30.44-19.968 50.936-51.952 56.362-87.95 0.902-5.99 1.63-12.006 2.18-18.032 2.722 2.52 5.424 5.114 8.114 7.794 24.138 24.040 56.688 37.312 90.322 37.312 5.348 0 10.718-0.336 16.094-1.018 19.36-2.452 39.124-3.696 58.748-3.696 50.666 0 99.58 7.948 145.384 23.628 42.926 14.692 81.116 35.434 113.504 61.644 60.046 48.59 93.112 110.802 93.112 175.174s-33.066 126.582-93.112 175.174c-32.388 26.212-70.578 46.952-113.504 61.646-45.804 15.678-94.718 23.628-145.384 23.628zM480 960v0c265.096 0 480-173.914 480-388.448s-214.904-388.448-480-388.448c-25.458 0-50.446 1.62-74.834 4.71-103.106-102.694-222.172-121.108-341.166-123.814v25.134c64.252 31.354 116 88.466 116 153.734 0 9.106-0.712 18.048-2.030 26.794-108.558 71.214-177.97 179.988-177.97 301.89 0 214.534 214.904 388.448 480 388.448zM996 89.314c0-55.942 36.314-104.898 92-131.772v-21.542c-103.126 2.318-197.786 18.102-287.142 106.126-21.14-2.65-42.794-4.040-64.858-4.040-95.47 0-183.408 25.758-253.614 69.040 144.674 0.506 281.26 46.854 384.834 130.672 52.208 42.252 93.394 91.826 122.414 147.348 30.766 58.866 46.366 121.582 46.366 186.406 0 10.448-0.45 20.836-1.258 31.168 72.57-59.934 117.258-141.622 117.258-231.676 0-104.488-60.158-197.722-154.24-258.764-1.142-7.496-1.76-15.16-1.76-22.966z" />
<glyph unicode="&#xe64e;" glyph-name="target" d="M576.736 512.8h185.248c-23.488 90.752-94.496 161.824-185.248 185.248v-185.248zM576.736 383.2v-185.184c90.752 23.36 161.76 94.496 185.248 185.184h-185.248zM447.136 512.8v185.248c-90.752-23.424-161.888-94.496-185.248-185.248h185.248zM447.136 383.2h-185.248c23.36-90.688 94.496-161.824 185.248-185.184v185.184zM576.736 830.304c162.368-27.488 289.984-155.136 317.504-317.504h129.76c-29.632 233.952-213.248 417.632-447.264 447.2v-129.696zM129.632 512.8c27.488 162.4 155.104 290.016 317.504 317.504v129.696c-233.888-29.568-417.632-213.248-447.136-447.2h129.632zM447.136 65.76c-162.368 27.488-289.984 155.008-317.504 317.44h-129.632c29.504-233.952 213.248-417.696 447.136-447.2v129.76zM894.24 383.2c-27.488-162.432-155.136-289.952-317.504-317.44v-129.76c234.016 29.504 417.632 213.248 447.264 447.2h-129.76z" />
<glyph unicode="&#xe64f;" glyph-name="star-badge" d="M406.752 129.12c-210.496-167.68-267.264-127.136-170.272 121.824-270.4-13.952-292.096 51.808-65.056 197.056-227.040 145.28-205.344 210.976 65.056 197.088-96.96 248.928-40.192 289.536 170.272 121.792 70.144 257.472 140.32 257.472 210.496 0 210.464 167.744 267.264 127.136 170.24-121.792 270.432 13.888 292.096-51.808 65.056-197.088 227.040-145.248 205.376-211.008-65.056-197.056 96.992-248.928 40.224-289.504-170.24-121.824-70.144-257.504-140.352-257.504-210.496 0z" />
<glyph unicode="&#xe651;" glyph-name="stats" d="M128 64h896v-128h-1024v1024h128zM288 128c-53.020 0-96 42.98-96 96s42.98 96 96 96c2.828 0 5.622-0.148 8.388-0.386l103.192 171.986c-9.84 15.070-15.58 33.062-15.58 52.402 0 53.020 42.98 96 96 96s96-42.98 96-96c0-19.342-5.74-37.332-15.58-52.402l103.192-171.986c2.766 0.238 5.56 0.386 8.388 0.386 2.136 0 4.248-0.094 6.35-0.23l170.356 298.122c-10.536 15.408-16.706 34.036-16.706 54.11 0 53.020 42.98 96 96 96s96-42.98 96-96c0-53.020-42.98-96-96-96-2.14 0-4.248 0.094-6.35 0.232l-170.356-298.124c10.536-15.406 16.706-34.036 16.706-54.11 0-53.020-42.98-96-96-96s-96 42.98-96 96c0 19.34 5.74 37.332 15.578 52.402l-103.19 171.984c-2.766-0.238-5.56-0.386-8.388-0.386s-5.622 0.146-8.388 0.386l-103.192-171.986c9.84-15.068 15.58-33.060 15.58-52.4 0-53.020-42.98-96-96-96z" />
<glyph unicode="&#xe655;" glyph-name="sticker-seal" d="M461.056 857.696c28.032-21.312 73.888-21.312 101.92 0l22.912 17.408c28.032 21.312 62.112 12.16 75.712-20.288l11.136-26.528c13.632-32.448 53.344-55.392 88.256-50.944l28.544 3.616c34.912 4.448 59.872-20.512 55.424-55.424l-3.648-28.576c-4.448-34.912 18.496-74.624 50.944-88.256l26.528-11.136c32.448-13.632 41.6-47.68 20.288-75.712l-17.408-22.912c-21.312-28.032-21.312-73.888 0-101.92l17.408-22.912c21.312-28.032 12.16-62.112-20.288-75.712l-26.528-11.136c-32.448-13.632-55.392-53.344-50.944-88.256l3.616-28.544c4.448-34.912-20.512-59.872-55.424-55.424l-28.544 3.616c-34.912 4.448-74.624-18.496-88.256-50.944l-11.136-26.528c-13.632-32.448-47.68-41.6-75.712-20.288l-22.912 17.408c-28.032 21.312-73.888 21.312-101.92 0l-22.912-17.408c-28.032-21.312-62.112-12.16-75.712 20.288l-11.136 26.528c-13.632 32.448-53.344 55.392-88.256 50.944l-28.544-3.616c-34.912-4.448-59.872 20.512-55.424 55.424l3.616 28.544c4.448 34.912-18.496 74.624-50.944 88.256l-26.528 11.136c-32.448 13.632-41.6 47.68-20.288 75.712l17.408 22.912c21.312 28.032 21.312 73.888 0 101.92l-17.408 22.912c-21.312 28.032-12.16 62.112 20.288 75.712l26.528 11.136c32.448 13.632 55.392 53.344 50.944 88.256l-3.616 28.544c-4.416 34.944 20.512 59.872 55.456 55.456l28.544-3.648c34.912-4.448 74.624 18.496 88.256 50.944l11.136 26.528c13.632 32.448 47.68 41.6 75.712 20.288l22.912-17.376z" />
<glyph unicode="&#xe658;" glyph-name="bar-chart" horiz-adv-x="1097" d="M292.571 365.714v-219.429h-146.286v219.429h146.286zM512 658.286v-512h-146.286v512h146.286zM731.429 512v-365.714h-146.286v365.714h146.286zM950.857 731.428v-585.143h-146.286v585.143h146.286zM1024 91.428v694.857q0 7.429-5.429 12.857t-12.857 5.429h-914.286q-7.429 0-12.857-5.429t-5.429-12.857v-694.857q0-7.429 5.429-12.857t12.857-5.429h914.286q7.429 0 12.857 5.429t5.429 12.857zM1097.143 786.286v-694.857q0-37.714-26.857-64.571t-64.571-26.857h-914.286q-37.714 0-64.571 26.857t-26.857 64.571v694.857q0 37.714 26.857 64.571t64.571 26.857h914.286q37.714 0 64.571-26.857t26.857-64.571z" />
<glyph unicode="&#xe659;" glyph-name="accessible-not" d="M416 544l-0.992 163.008c32 20.32 44 54.016 44 95.008 0 63.456-52 123.008-124.992 123.008-63.456 0-124.992-57.568-124.992-120.992-0.032-41.024 14.976-91.040 62.976-113.024l-0.416-86.848c-102.528-36.32-214.4-153.792-214.4-302.304 0-183.616 156.384-332.448 340-332.448 122.912 0 233.696 77.856 291.264 178.976l94.080-144.8 1.184 0.256 0.576-0.256 39.36 25.344 63.36 40.384-0.032 0.352 65.632 42.432-64.096 104-67.232-46.112-158.752 246.016h73.472v128h-320zM603.712 165.568l-81.152-81.088-121.664 121.664-121.696-121.664-81.12 81.088 121.696 121.728-121.696 121.696 81.12 81.088 121.664-121.664 121.664 121.664 81.12-81.088-121.664-121.664 121.728-121.76z" />
<glyph unicode="&#xe65a;" glyph-name="warning" d="M999.014 52.122l-456.090 800.307c-6.298 11.059-18.125 17.869-30.925 17.869s-24.576-6.81-30.925-17.869l-456.038-800.307c-6.195-10.854-6.093-24.115 0.256-34.867s18.022-17.357 30.618-17.357h912.128c12.493 0 24.218 6.605 30.618 17.357 6.349 10.752 6.451 24.013 0.358 34.867zM568.32 102.298h-112.64v102.4h112.64v-102.4zM568.32 281.498h-112.64v307.2h112.64v-307.2z" />
<glyph unicode="&#xe65c;" glyph-name="users" d="M1024 10.24c0 0-1.997 193.894-13.875 213.965-17.664 29.952-58.675 50.483-134.861 82.33-75.93 31.744-100.25 58.573-100.25 115.866 0 34.458 23.194 23.194 33.382 86.221 4.198 26.163 24.678 0.461 28.621 60.109 0 23.808-11.162 29.747-11.162 29.747s5.632 35.226 7.885 62.31c2.765 33.792-17.050 120.986-122.47 120.986s-125.133-87.245-122.419-120.986c2.202-27.085 7.834-62.31 7.834-62.31s-11.162-5.939-11.162-29.747c3.942-59.699 24.422-33.997 28.672-60.109 10.138-63.027 33.331-51.763 33.331-86.221 0-38.963-11.264-63.846-42.342-85.709 165.888-83.046 188.16-99.994 188.16-174.234v-152.218h230.656zM523.469 277.76c-101.325 42.291-133.632 78.029-133.632 154.47 0 45.875 30.925 30.925 44.493 114.995 5.581 34.867 32.973 0.563 38.144 80.128 0 31.744-14.899 39.629-14.899 39.629s7.578 46.95 10.547 83.098c3.686 44.954-22.733 161.28-163.277 161.28s-166.912-116.275-163.226-161.28c2.97-36.147 10.496-83.098 10.496-83.098s-14.848-7.885-14.848-39.629c5.274-79.616 32.563-45.312 38.195-80.128 13.568-84.070 44.493-69.069 44.493-114.995 0-76.442-32.41-112.179-133.632-154.47-30.874-12.902-86.323-32.922-86.323-80.947v-186.573h711.373c0 0 0 110.336 0 139.827 0 43.878-86.374 85.197-187.904 127.693z" />
<glyph unicode="&#xe65d;" glyph-name="quality-q-lg" d="M517.248 623.776c-104.48 0-171.040-79.776-171.040-186.56 0-106.080 66.56-186.56 171.040-186.56 27.104 0 51.040 5.408 72.736 15.488l-80.16 94.976 62.72 51.872 80.096-95.040c23.264 31.776 35.68 73.536 35.68 119.232-0.032 106.816-67.392 186.592-171.072 186.592zM958.72 479.168c21.184 23.008 15.776 53.6-12 67.968s-40.64 49.76-28.608 78.624-3.488 55.776-34.528 59.776c-31.008 4-55.2 32.864-53.792 64.096 1.44 31.232-22.368 51.2-52.896 44.384s-63.136 12-72.48 41.824c-9.344 29.856-38.528 40.48-64.864 23.616s-63.424-10.336-82.4 14.528c-18.976 24.864-50.048 24.864-69.024 0s-56.064-31.392-82.4-14.528c-26.336 16.864-55.52 6.24-64.864-23.616-9.312-29.824-41.92-48.64-72.448-41.792s-54.304-13.12-52.896-44.384c1.44-31.232-22.752-60.096-53.76-64.096s-46.56-30.912-34.528-59.776-0.864-64.256-28.608-78.624c-27.776-14.368-33.152-44.96-12-67.968 21.184-23.008 21.184-60.672 0-83.68s-15.776-53.6 12-67.968c27.776-14.368 40.64-49.76 28.608-78.624s3.488-55.776 34.528-59.776c31.008-4 55.232-32.864 53.792-64.096s22.368-51.2 52.896-44.384c30.528 6.848 63.136-12 72.48-41.824 9.344-29.856 38.528-40.48 64.864-23.616s63.424 10.336 82.4-14.528c18.976-24.864 50.048-24.864 69.024 0s56.064 31.392 82.4 14.528c26.336-16.864 55.52-6.24 64.864 23.616s41.952 48.672 72.48 41.824 54.304 13.12 52.896 44.384c-1.44 31.232 22.784 60.096 53.792 64.096s46.56 30.912 34.528 59.776c-12.032 28.864 0.832 64.256 28.608 78.624s33.152 44.96 12 67.968c-21.248 22.976-21.248 60.64-0.064 83.648zM719.968 125.824l-72.768 75.328c-37.12-20.16-81.248-31.008-129.952-31.008-154.848 0-263.936 113.056-263.936 267.072s109.088 266.976 263.936 266.976c154.784 0 263.936-112.928 263.936-266.976 0-74.368-25.6-138.528-68.96-185.792l70.432-73.056-62.688-52.544z" />
<glyph unicode="&#xe65e;" glyph-name="text-fill" d="M768 921.6h-512c-56.32 0-102.4-46.080-102.4-102.4v-716.8c0-56.32 46.080-102.4 102.4-102.4h512c56.32 0 102.4 46.080 102.4 102.4v716.8c0 56.32-46.080 102.4-102.4 102.4zM297.574 708.147h428.8v-89.6h-428.8v89.6zM726.374 216.576h-428.8v89.6h428.8v-89.6zM727.603 416.256h-428.8v92.16h428.8v-92.16z" />
<glyph unicode="&#xe65f;" glyph-name="text2" d="M369.818 416.256h286.72v92.16h-286.72v-92.16zM768 921.6h-512c-56.32 0-102.4-46.080-102.4-102.4v-716.8c0-56.32 46.080-102.4 102.4-102.4h512c56.32 0 102.4 46.080 102.4 102.4v716.8c0 56.32-46.080 102.4-102.4 102.4zM768 102.4h-512v716.8h512v-716.8zM655.36 708.147h-286.72v-89.6h286.72v89.6zM655.36 306.176h-286.72v-89.6h286.72v89.6z" />
<glyph unicode="&#xe660;" glyph-name="newspaper" d="M819.2 921.6h-614.4c-56.32 0-102.4-46.080-102.4-102.4v-716.8c0-56.32 46.080-102.4 102.4-102.4h614.4c56.371 0 102.4 46.080 102.4 102.4v716.8c0 56.32-46.029 102.4-102.4 102.4zM819.2 102.4h-614.4v716.8h614.4v-716.8zM563.2 358.4h-256v-51.2h256v51.2zM716.8 563.2h-204.8v-51.2h204.8v51.2zM512 614.4h204.8v102.4h-204.8v-102.4zM460.8 716.8h-153.6v-204.8h153.6v204.8zM409.6 460.8h-102.4v-51.2h102.4v51.2zM460.8 409.6h256v51.2h-256v-51.2zM716.8 256h-409.6v-51.2h409.6v51.2zM614.4 307.2h102.4v51.2h-102.4v-51.2z" />
<glyph unicode="&#xe661;" glyph-name="cycle" d="M282.419 244.531c-115.814 124.57-113.766 319.744 6.502 440.883 49.254 49.562 110.797 79.155 174.797 88.883l-3.533 106.342c-89.805-10.906-176.742-50.995-245.606-120.32-161.229-162.406-163.123-424.448-6.298-590.438l-89.139-89.754 282.112-15.411-0.768 298.701-118.067-118.886zM622.694 856.832l0.768-298.701 118.118 118.938c115.814-124.57 113.818-319.744-6.502-440.883-49.254-49.613-110.797-79.155-174.848-88.883l3.533-106.291c89.856 10.906 176.794 50.995 245.658 120.371 161.178 162.355 163.174 424.448 6.246 590.387l89.139 89.754-282.112 15.309z" />
<glyph unicode="&#xe662;" glyph-name="user-add" d="M633.702 233.062c-127.539 45.978-168.294 84.787-168.294 167.885 0 49.869 38.963 33.587 56.064 124.928 7.117 37.888 41.523 0.614 48.026 87.091 0 34.458-18.739 43.059-18.739 43.059s9.574 51.046 13.261 90.266c4.608 48.947-28.57 175.309-205.619 175.309s-210.227-126.362-205.619-175.309c3.738-39.27 13.312-90.266 13.312-90.266s-18.79-8.55-18.79-43.059c6.605-86.477 41.011-49.203 48.026-87.091 17.152-91.341 56.115-75.059 56.115-124.928 0-83.098-40.806-121.907-168.346-167.885-15.36-5.478-51.968-14.080-83.098-27.546v-205.517h819.2c0 0 0 75.725 0 107.776s-57.498 79.155-185.498 125.286zM870.4 512v153.6h-102.4v-153.6h-153.6v-102.4h153.6v-153.6h102.4v153.6h153.6v102.4h-153.6z" />
<glyph unicode="&#xe663;" glyph-name="location" d="M512 960c-176.732 0-320-143.268-320-320 0-320 320-704 320-704s320 384 320 704c0 176.732-143.27 320-320 320zM512 448c-106.040 0-192 85.96-192 192s85.96 192 192 192 192-85.96 192-192-85.96-192-192-192z" />
<glyph unicode="&#xe664;" glyph-name="location2" d="M512 960c-176.732 0-320-143.268-320-320 0-320 320-704 320-704s320 384 320 704c0 176.732-143.27 320-320 320zM512 444c-108.248 0-196 87.752-196 196s87.752 196 196 196 196-87.752 196-196-87.752-196-196-196zM388 640c0 68.483 55.517 124 124 124s124-55.517 124-124c0-68.483-55.517-124-124-124s-124 55.517-124 124z" />
<glyph unicode="&#xe665;" glyph-name="accessible" d="M915.392 101.568l65.184 42.176-63.712 103.36-66.816-43.2-166.496 260.864h-260.48v35.648h291.456v121.408h-291.488v109.184c32.096 20.192 53.472 55.904 53.472 96.64 0 63.072-51.104 114.24-114.24 114.24-63.072 0-114.24-51.168-114.24-114.24 0-40.736 21.376-76.416 53.536-96.64v-387.648h315.36l196.256-307.488 0.352 0.256 0.16-0.256 38.912 25.184 62.88 40.16-0.096 0.352zM376.608 55.296c-127.904 0-231.968 104.064-231.968 231.968 0 85.824 47.008 160.8 116.512 200.928v111.68c-127.072-46.976-217.696-169.216-217.696-312.576 0-184.032 149.152-333.184 333.12-333.184 140.512 0 260.64 87.008 309.632 210.112l-77.696 121.696c-0.736-127.328-104.448-230.624-231.904-230.624z" />
<glyph unicode="&#xe666;" glyph-name="spinner-penta" d="M192 448c0 12.18 0.704 24.196 2.030 36.022l-184.98 60.104c-5.916-31.14-9.050-63.264-9.050-96.126 0-147.23 62.166-279.922 161.654-373.324l114.284 157.296c-52.124 56.926-83.938 132.758-83.938 216.028zM832 448c0-83.268-31.812-159.102-83.938-216.028l114.284-157.296c99.488 93.402 161.654 226.094 161.654 373.324 0 32.862-3.132 64.986-9.048 96.126l-184.98-60.104c1.324-11.828 2.028-23.842 2.028-36.022zM576 761.592c91.934-18.662 169.544-76.742 214.45-155.826l184.978 60.102c-73.196 155.42-222.24 268.060-399.428 290.156v-194.432zM233.55 605.768c44.906 79.084 122.516 137.164 214.45 155.826v194.43c-177.188-22.096-326.23-134.736-399.426-290.154l184.976-60.102zM644.556 156.672c-40.39-18.408-85.272-28.672-132.556-28.672s-92.166 10.264-132.554 28.67l-114.292-157.31c73.206-40.366 157.336-63.36 246.846-63.36s173.64 22.994 246.848 63.36l-114.292 157.312z" />
<glyph unicode="&#xe667;" glyph-name="list-ul" d="M219.429 146.286q0-45.714-32-77.714t-77.714-32-77.714 32-32 77.714 32 77.714 77.714 32 77.714-32 32-77.714zM219.429 438.857q0-45.714-32-77.714t-77.714-32-77.714 32-32 77.714 32 77.714 77.714 32 77.714-32 32-77.714zM1024 201.143v-109.714q0-7.429-5.429-12.857t-12.857-5.429h-694.857q-7.429 0-12.857 5.429t-5.429 12.857v109.714q0 7.429 5.429 12.857t12.857 5.429h694.857q7.429 0 12.857-5.429t5.429-12.857zM219.429 731.428q0-45.714-32-77.714t-77.714-32-77.714 32-32 77.714 32 77.714 77.714 32 77.714-32 32-77.714zM1024 493.714v-109.714q0-7.429-5.429-12.857t-12.857-5.429h-694.857q-7.429 0-12.857 5.429t-5.429 12.857v109.714q0 7.429 5.429 12.857t12.857 5.429h694.857q7.429 0 12.857-5.429t5.429-12.857zM1024 786.286v-109.714q0-7.429-5.429-12.857t-12.857-5.429h-694.857q-7.429 0-12.857 5.429t-5.429 12.857v109.714q0 7.429 5.429 12.857t12.857 5.429h694.857q7.429 0 12.857-5.429t5.429-12.857z" />
<glyph unicode="&#xe668;" glyph-name="compass" horiz-adv-x="878" d="M365.714 329.143l146.286 73.143-146.286 73.143v-146.286zM585.143 666.857v-309.714l-292.571-146.286v309.714zM749.714 438.857q0 84.571-41.714 156t-113.143 113.143-156 41.714-156-41.714-113.143-113.143-41.714-156 41.714-156 113.143-113.143 156-41.714 156 41.714 113.143 113.143 41.714 156zM877.714 438.857q0-119.429-58.857-220.286t-159.714-159.714-220.286-58.857-220.286 58.857-159.714 159.714-58.857 220.286 58.857 220.286 159.714 159.714 220.286 58.857 220.286-58.857 159.714-159.714 58.857-220.286z" />
<glyph unicode="&#xe66b;" glyph-name="print" horiz-adv-x="951" d="M219.429 73.143h512v146.286h-512v-146.286zM219.429 438.857h512v219.429h-91.429q-22.857 0-38.857 16t-16 38.857v91.429h-365.714v-365.714zM877.714 402.286q0 14.857-10.857 25.714t-25.714 10.857-25.714-10.857-10.857-25.714 10.857-25.714 25.714-10.857 25.714 10.857 10.857 25.714zM950.857 402.286v-237.714q0-7.429-5.429-12.857t-12.857-5.429h-128v-91.429q0-22.857-16-38.857t-38.857-16h-548.571q-22.857 0-38.857 16t-16 38.857v91.429h-128q-7.429 0-12.857 5.429t-5.429 12.857v237.714q0 45.143 32.286 77.429t77.429 32.286h36.571v310.857q0 22.857 16 38.857t38.857 16h384q22.857 0 50.286-11.429t43.429-27.429l86.857-86.857q16-16 27.429-43.429t11.429-50.286v-146.286h36.571q45.143 0 77.429-32.286t32.286-77.429z" />
<glyph unicode="&#xe66c;" glyph-name="cog" horiz-adv-x="878" d="M585.143 438.857q0 60.571-42.857 103.429t-103.429 42.857-103.429-42.857-42.857-103.429 42.857-103.429 103.429-42.857 103.429 42.857 42.857 103.429zM877.714 501.143v-126.857q0-6.857-4.571-13.143t-11.429-7.429l-105.714-16q-10.857-30.857-22.286-52 20-28.571 61.143-78.857 5.714-6.857 5.714-14.286t-5.143-13.143q-15.429-21.143-56.571-61.714t-53.714-40.571q-6.857 0-14.857 5.143l-78.857 61.714q-25.143-13.143-52-21.714-9.143-77.714-16.571-106.286-4-16-20.571-16h-126.857q-8 0-14 4.857t-6.571 12.286l-16 105.143q-28 9.143-51.429 21.143l-80.571-61.143q-5.714-5.143-14.286-5.143-8 0-14.286 6.286-72 65.143-94.286 96-4 5.714-4 13.143 0 6.857 4.571 13.143 8.571 12 29.143 38t30.857 40.286q-15.429 28.571-23.429 56.571l-104.571 15.429q-7.429 1.143-12 7.143t-4.571 13.429v126.857q0 6.857 4.571 13.143t10.857 7.429l106.286 16q8 26.286 22.286 52.571-22.857 32.571-61.143 78.857-5.714 6.857-5.714 13.714 0 5.714 5.143 13.143 14.857 20.571 56.286 61.429t54 40.857q7.429 0 14.857-5.714l78.857-61.143q25.143 13.143 52 21.714 9.143 77.714 16.571 106.286 4 16 20.571 16h126.857q8 0 14-4.857t6.571-12.286l16-105.143q28-9.143 51.429-21.143l81.143 61.143q5.143 5.143 13.714 5.143 7.429 0 14.286-5.714 73.714-68 94.286-97.143 4-4.571 4-12.571 0-6.857-4.571-13.143-8.571-12-29.143-38t-30.857-40.286q14.857-28.571 23.429-56l104.571-16q7.429-1.143 12-7.143t4.571-13.429z" />
<glyph unicode="&#xe66d;" glyph-name="logout" d="M564.275 102.4h-411.699v716.8h411.648v-153.6h101.376v153.6c0 56.32-46.029 102.4-102.4 102.4h-409.6c-56.32 0-102.4-46.080-102.4-102.4v-716.8c0-56.32 46.080-102.4 102.4-102.4h409.6c56.371 0 102.4 46.080 102.4 102.4v102.4h-101.325v-102.4zM972.8 435.2l-203.725 199.68v-122.88h-460.8v-153.6h460.8v-122.88l203.725 199.68z" />
<glyph unicode="&#xe66e;" glyph-name="login" d="M870.4 921.6h-460.8c-56.32 0-101.376-46.080-101.376-102.4v-153.6h101.376v153.6h460.8v-716.8h-460.8v102.4h-101.376v-102.4c0-56.32 45.056-102.4 101.376-102.4h460.8c56.32 0 102.4 46.080 102.4 102.4v716.8c0 56.32-46.080 102.4-102.4 102.4zM512 235.52l204.8 199.68-204.8 199.68v-122.88h-460.8v-153.6h460.8v-122.88z" />
<glyph unicode="&#xe66f;" glyph-name="map-pin-primary" d="M512 915.968c-179.776 0-325.504-148-325.504-330.56s232.512-432.768 325.504-574.432c97.216 141.664 325.504 391.872 325.504 574.432s-145.728 330.56-325.504 330.56zM512 437.344c-82.464 0-149.344 66.848-149.344 149.344s66.88 149.312 149.344 149.312 149.344-66.848 149.344-149.344-66.88-149.312-149.344-149.312z" />
<glyph unicode="&#xe670;" glyph-name="map-pin-affiliated" d="M758.464 896h-492.928c-33.536 0-73.536-27.2-73.536-60.736v-492.928c0-33.536 40-54.336 73.536-54.336h140.288l106.176-314.688 106.176 314.688h140.288c33.536 0 73.536 20.8 73.536 54.336v492.928c0 33.536-40 60.736-73.536 60.736zM672 490.112c0-23.264-18.848-42.112-42.112-42.112h-235.744c-23.296 0-42.144 18.848-42.144 42.112v203.776c0 23.264 18.848 42.112 42.112 42.112h235.744c23.296 0 42.144-18.848 42.144-42.112v-203.776z" />
<glyph unicode="&#xe675;" glyph-name="flag" d="M832 787.694c76.466 0 145.092 41.622 192 73.106v-595.69c-46.908-31.486-115.534-73.11-192-73.11s-145.092 22.67-192 54.156c-46.908 31.48-115.534 54.15-192 54.15s-145.090-38.916-192-70.396v595.69c46.91 31.484 115.534 70.4 192 70.4s145.092-22.668 192-54.152c46.908-31.484 115.534-54.154 192-54.154zM128 960c35.346 0 64-28.654 64-64v-960h-128v960c0 35.346 28.654 64 64 64z" />
<glyph unicode="&#xe676;" glyph-name="pen" d="M948.992 884.992c-49.856 50.016-115.36 75.008-180.992 75.008-65.504 0-131.008-24.992-180.992-75.008l-586.016-585.984-0.992-363.008h361.984l587.008 587.008c100 100 100 261.984 0 361.984zM308.992 64h-52.992v128h-127.264l0.128 53.76 548.64 548.736 180.992-180.992-549.504-549.504z" />
<glyph unicode="&#xe678;" glyph-name="image" d="M896 768h-768v-640h768v640zM1024 896v0-896h-1024v896h1024zM832 192h-640v128l192 320 263-320 185 128v-64zM640 608c0 53.019 42.981 96 96 96s96-42.981 96-96c0-53.019-42.981-96-96-96s-96 42.981-96 96z" />
<glyph unicode="&#xe679;" glyph-name="bars" d="M0 128h1024v-128h-1024zM128 384h128v-192h-128zM320 640h128v-448h-128zM512 448h128v-256h-128zM704 832h128v-640h-128z" />
<glyph unicode="&#xe67a;" glyph-name="asterisk-medical" d="M923.136 549.568l-125.216 209.792-198.912-159.648 35.456 252.448h-250.176l37.184-252.448-197.248 159.648-123.36-209.792 241.92-102.304-240.704-102.272 121.952-209.824 197.44 159.648-37.184-250.976h250.176l-35.456 250.976 198.912-159.648 125.12 209.824-241.088 102.272z" />
<glyph unicode="&#xe67b;" glyph-name="diamond" d="M74.519 448l437.497 437.497 437.497-437.497-437.497-437.497-437.497 437.497z" />
<glyph unicode="&#xe67c;" glyph-name="chat" d="M0 256c0-47.146 38.186-85.334 85.334-85.334h128v-131.626c0-23.68 19.2-42.666 42.666-42.666 11.968 0 22.806 4.906 30.506 12.8l161.494 161.492h469.334c47.146 0 85.334 38.186 85.334 85.334l-0.002 533.334c0 47.146-38.186 85.334-85.334 85.334l-831.998-0.002c-47.148 0-85.334-38.186-85.334-85.332v-533.334zM256 501.334c0 29.44 23.894 53.334 53.334 53.334s53.334-23.894 53.334-53.334-23.894-53.334-53.334-53.334-53.334 23.894-53.334 53.334zM448 501.334c0 29.44 23.894 53.334 53.334 53.334s53.334-23.894 53.334-53.334-23.894-53.334-53.334-53.334-53.334 23.894-53.334 53.334zM640 501.334c0 29.44 23.894 53.334 53.334 53.334s53.334-23.894 53.334-53.334-23.894-53.334-53.334-53.334-53.334 23.894-53.334 53.334z" />
<glyph unicode="&#xe67d;" glyph-name="envelope" d="M0 149.334c0-47.146 38.186-85.334 85.334-85.334h853.334c47.146 0 85.334 38.186 85.334 85.334l-0.002 576c0 47.146-38.186 85.334-85.334 85.334l-853.332-0.002c-47.146 0-85.334-38.186-85.334-85.334v-575.998zM314.026 436.694l-195.2 196.48c-16.192 16.214-16.192 42.454 0 58.666 16.234 16.214 42.474 16.214 58.666 0l311.468-311.872c12.586-12.374 33.302-12.374 45.674 0l311.872 311.872c16.214 16.214 42.454 16.214 58.666 0 16.214-16.214 16.214-42.454 0-58.666l-195.414-196.48 195.414-195.178c16.214-16.214 16.214-42.454 0-58.666s-42.454-16.214-58.666 0l-195.2 194.986c0 0-60.992-62.080-72.086-73.174-17.3-16.876-41.194-27.328-67.22-27.328-26.454 0-50.346 10.666-67.626 27.968-11.306 11.094-71.894 72.512-71.894 72.512l-195.008-194.986c-16.192-16.214-42.432-16.214-58.666 0-16.192 16.214-16.192 42.454 0 58.666l195.22 195.2z" />
<glyph unicode="&#xe67e;" glyph-name="envelope2" d="M1024 512.214c0 29.866-12.374 56.96-32.214 76.374l-404.052 340.052c-41.814 41.814-109.654 41.814-151.466 0l-404.054-340.054c-19.84-19.412-32.214-46.506-32.214-76.372v-490.88c0-47.146 38.186-85.334 85.334-85.334h853.334c47.146 0 85.334 38.186 85.334 85.334l-0.002 490.88zM217.6 597.334h588.8c26.026 0 46.934-20.906 46.934-46.934v-81.066c-0.214-10.24-4.266-20.266-12.16-28.16l-131.414-132.48 195.414-195.178c16.214-16.214 16.214-42.454 0-58.666s-42.454-16.214-58.666 0l-201.174 201.15h-267.094l-200.746-201.174c-16.214-16.214-42.454-16.214-58.666 0-16.214 16.214-16.214 42.454 0 58.666l195.2 195.178-131.2 132.48c-8.534 8.534-12.586 19.626-12.16 30.934l-0.002 78.316c0 26.026 20.908 46.934 46.934 46.934z" />
<glyph unicode="&#xe67f;" glyph-name="disc-slash" d="M722.944 767.072c-60.48 40.064-132.96 63.552-210.944 63.552-211.296 0-382.624-171.328-382.624-382.624 0-78.016 23.456-150.464 63.552-210.944l530.016 530.016zM317.376 119.008c57.056-33.824 123.456-53.6 194.624-53.6 211.296 0 382.624 171.296 382.624 382.624 0 71.168-19.776 137.536-53.6 194.624l-523.648-523.648z" />
<glyph unicode="&#xe680;" glyph-name="phone2" d="M513.664 1.728c87.446-87.68 229.12-87.68 316.566 0 54.422 54.4 75.094 129.706 61.674 200.106 23.040 11.734 43.712 25.386 60.992 38.186 1.92 1.494 10.454 7.466 12.586 9.174 9.622 7.894 15.786 19.84 15.786 33.302 0 12.8-5.546 24.32-14.506 32l-176 145.066c-7.254 5.974-16.618 9.6-26.88 9.6-11.542 0-21.994-4.48-29.674-11.734-3.008-2.986-29.418-30.080-29.418-30.080-18.368-18.346-48-18.346-66.368 0l-179.606 179.84c-18.346 18.346-18.346 48.214 0 66.56l29.226 29.226c7.68 7.68 12.16 18.346 12.16 29.846 0 11.52-4.48 21.782-11.734 29.44l-150.826 182.186c-7.894 9.386-19.84 15.574-33.066 15.574-14.080 0-26.454-6.826-34.346-17.28l-2.56-3.414c-32.854-44.374-75.734-114.774-75.734-180.906 0-182.186 406.208-587.734 586.666-587.734 3.414 0 6.826 0.214 10.048 0.214 3.2-33.494-8.128-68.032-33.706-93.866-45.866-45.846-120.128-45.846-165.994 0l-294.592 302.72c-62.506 62.506-163.626 62.506-226.134 0-62.506-62.506-62.506-163.626 0-226.134l96.64-95.36c20.906-20.714 54.614-20.714 75.52 0 20.694 20.886 20.694 54.614 0 75.498l-96.854 95.168c-20.694 20.886-20.694 54.614 0 75.498 20.906 20.714 54.614 20.714 75.52 0l294.614-302.696z" />
<glyph unicode="&#xe681;" glyph-name="mobile" d="M128 21.334c0-47.146 38.186-85.334 85.334-85.334h576c47.146 0 85.334 38.186 85.334 85.334l-0.002 853.332c0 47.146-38.186 85.334-85.334 85.334h-575.998c-47.148 0-85.334-38.186-85.334-85.334v-853.332zM281.6 853.334h439.466c26.028 0 46.934-20.908 46.934-46.934v-524.8c0-26.026-20.906-46.934-46.934-46.934h-439.466c-26.026 0-46.934 20.906-46.934 46.934v524.8c0 26.026 20.908 46.934 46.934 46.934zM448 96c0 29.44 23.894 53.334 53.334 53.334s53.334-23.894 53.334-53.334-23.894-53.334-53.334-53.334-53.334 23.894-53.334 53.334z" />
<glyph unicode="&#xe682;" glyph-name="cog2" d="M448 437.334c0 29.44 23.894 53.334 53.334 53.334s53.334-23.894 53.334-53.334-23.894-53.334-53.334-53.334-53.334 23.894-53.334 53.334zM501.334 576c-76.586 0-138.666-62.080-138.666-138.666s62.080-138.666 138.666-138.666 138.666 62.080 138.666 138.666-62.080 138.666-138.666 138.666zM142.080 335.36c8.106-28.8 19.626-56.106 34.134-81.472l-64-69.974c-18.326-18.346-18.326-48 0-66.346l69.334-69.334c18.346-18.326 48-18.326 66.346 0l69.974 64c25.366-14.506 52.694-26.026 81.472-34.134l5.994-95.166c0-26.026 20.906-46.934 46.934-46.934h98.134c26.026 0 46.934 20.906 46.934 46.934l5.952 95.146c28.822 8.106 56.128 19.626 81.494 34.134l69.974-64c18.346-18.326 48-18.326 66.346 0l69.334 69.334c18.326 18.346 18.326 48 0 66.346l-64 69.974c14.506 25.366 26.026 52.694 34.134 81.472l95.164 5.994c26.026 0 46.934 20.906 46.934 46.934v98.134c0 26.026-20.906 46.934-46.934 46.934l-95.146 5.974c-8.106 28.8-19.626 56.106-34.134 81.494l64 69.974c18.326 18.346 18.326 48 0 66.346l-69.334 69.334c-18.346 18.346-48 18.346-66.346 0l-69.974-64c-25.366 14.506-52.694 26.026-81.494 34.134l-5.972 95.142c0 26.026-20.908 46.932-46.934 46.932h-98.134c-26.026 0-46.932-20.906-46.932-46.932l-5.974-95.146c-28.8-8.106-56.106-19.626-81.472-34.134l-69.974 64c-18.346 18.346-48 18.346-66.346 0l-69.354-69.334c-18.326-18.346-18.326-48 0-66.346l64-69.974c-14.506-25.386-26.026-52.694-34.134-81.494l-95.146-5.972c-26.028 0-46.934-20.908-46.934-46.934v-98.134c0-26.026 20.906-46.932 46.934-46.932l95.146-5.974zM501.334 661.334c123.732 0 224-100.268 224-224s-100.268-224-224-224-224 100.266-224 224 100.266 224 224 224z" />
<glyph unicode="&#xe683;" glyph-name="arrow-down3" d="M687.002 583.629c13.875 13.722 36.301 13.722 50.125 0 13.875-13.722 13.875-35.891 0-49.613l-200.038-196.096c-13.875-13.722-36.301-13.722-50.125 0l-200.090 196.096c-13.824 13.722-13.824 35.891 0 49.613 13.875 13.722 36.25 13.722 50.125 0l175.002-160.768 175.002 160.768z" />
<glyph unicode="&#xe684;" glyph-name="arrow-right4" d="M286.704 80.998c-13.722-13.875-13.722-36.25 0-50.125s35.891-13.875 49.613 0l400.896 404.838c13.722 13.875 13.722 36.301 0 50.125l-400.896 404.89c-13.722 13.875-35.891 13.875-49.613 0s-13.722-36.25 0-50.125l365.568-379.802-365.568-379.802z" />
<glyph unicode="&#xe685;" glyph-name="tri-left" d="M716.749 696.32l0.051-471.040-409.6 235.52z" />
<glyph unicode="&#xe686;" glyph-name="tri-down" d="M747.52 665.549l-471.040 0.051 235.52-409.6z" />
<glyph unicode="&#xe687;" glyph-name="tri-up" d="M276.48 256h471.040l-235.571 409.6z" />
<glyph unicode="&#xe688;" glyph-name="attachment" d="M701.888 640l-373.334-375.658c-12.394-12.374-32.448-12.374-44.822 0-12.374 12.352-12.374 32.618 0 44.992l437.59 440.34c18.134 18.326 47.552 18.326 65.686 0l98.56-99.2c18.134-18.134 18.134-47.786 0-66.134l-437.546-440.34c-78.294-78.698-205.226-78.698-283.734 0-78.314 78.934-78.314 206.698 0 285.674l373.334 375.658c20.694 20.694 20.694 54.4 0 75.114-20.48 20.694-53.974 20.694-74.666 0l-373.334-375.68c-119.488-120.342-119.488-315.52 0-435.84 119.68-120.342 313.6-120.342 433.066 0l470.4 473.366c41.194 41.6 41.194 108.822 0 150.4l-164.266 165.12c-41.174 41.6-108.16 41.6-149.334 0l-470.4-473.386c-53.546-53.76-53.546-141.206 0-195.178 53.76-53.974 140.586-53.974 194.154 0l373.334 375.68c20.694 20.694 20.694 54.4 0 75.094-20.714 20.672-53.994 20.672-74.688-0.022z" />
<glyph unicode="&#xe689;" glyph-name="clipboard" d="M650.666 448h-298.666c-29.44 0-53.334-23.894-53.334-53.334s23.894-53.334 53.334-53.334h298.666c29.44 0 53.334 23.894 53.334 53.334s-23.894 53.334-53.334 53.334zM650.666 256h-298.666c-29.44 0-53.334-23.894-53.334-53.334s23.894-53.334 53.334-53.334h298.666c29.44 0 53.334 23.894 53.334 53.334s-23.894 53.334-53.334 53.334zM85.334 21.334c0-47.146 38.186-85.334 85.334-85.334h661.334c47.146 0 85.334 38.186 85.334 85.334l-0.002 725.332c0 47.146-38.186 85.334-85.334 85.334h-173.866c-14.698 72.96-79.36 128-156.8 128s-142.080-55.040-156.8-128h-173.868c-47.146 0-85.334-38.186-85.334-85.334l0.002-725.332zM238.934 725.334h102.4v-38.4c0-26.026 20.906-46.934 46.934-46.934h226.134c26.026 0 46.934 20.906 46.934 46.934l-0.002 38.4h102.4c26.026 0 46.934-20.906 46.934-46.934v-588.8c0-26.026-20.906-46.934-46.934-46.934h-524.8c-26.028 0-46.934 20.908-46.934 46.934v588.8c0 26.026 20.906 46.934 46.934 46.934zM448 800c0 29.44 23.894 53.334 53.334 53.334s53.332-23.894 53.332-53.334-23.892-53.334-53.332-53.334-53.334 23.894-53.334 53.334z" />
<glyph unicode="&#xe68b;" glyph-name="board" d="M501.334 277.974c-23.894 30.294-44.8 45.226-96.64 50.326-9.386 1.706-16.214 9.814-16.214 19.414 0 7.040 23.040 28.16 22.806 28.374 23.914 24.126 36.714 63.166 36.714 93.246 0 46.698-41.366 85.334-96 85.334-55.68 0-96-38.634-96-85.334 0-30.294 12.586-69.546 36.48-93.674 0 0 23.040-20.886 23.040-27.946 0-10.026-7.68-18.56-17.92-19.84-50.794-5.12-71.274-20.054-94.934-49.92-6.634-8.746-10.454-26.026-10.666-35.2v-40.106c0-17.706 14.698-32 32.854-32h254.294c18.154 0 32.854 14.294 32.854 32v40.106c-0.216 9.214-3.864 26.472-10.668 35.22zM757.334 512h-106.666c-29.44 0-53.334-23.894-53.334-53.334s23.894-53.334 53.334-53.334h106.666c29.44 0 53.334 23.894 53.334 53.334s-23.894 53.334-53.334 53.334zM757.334 320h-106.666c-29.44 0-53.334-23.894-53.334-53.334s23.894-53.334 53.334-53.334h106.666c29.44 0 53.334 23.894 53.334 53.334s-23.894 53.334-53.334 53.334zM0 64c0-47.146 38.186-85.334 85.334-85.334h853.334c47.146 0 85.334 38.186 85.334 85.334l-0.002 682.666c0 47.146-38.186 85.334-85.334 85.334h-256v38.4c0 26.026-20.906 46.934-46.932 46.934h-247.468c-26.026 0-46.932-20.908-46.932-46.934v-38.4h-256c-47.146 0-85.334-38.186-85.334-85.334v-682.666zM153.6 725.334h187.734v-38.4c0-26.026 20.906-46.934 46.934-46.934h247.466c26.026 0 46.934 20.906 46.934 46.934l-0.002 38.4h187.734c26.026 0 46.934-20.906 46.934-46.934v-546.134c0-26.026-20.906-46.934-46.934-46.934l-716.8 0.002c-26.026 0-46.934 20.906-46.934 46.932v546.134c0 26.026 20.908 46.934 46.934 46.934z" />
<glyph unicode="&#xe68c;" glyph-name="tri-right" d="M307.251 696.32l-0.051-471.040 409.6 235.52z" />
<glyph unicode="&#xe68d;" glyph-name="medicine" d="M0 21.334c0-47.146 38.186-85.334 85.334-85.334h853.334c47.146 0 85.334 38.186 85.334 85.334l-0.002 640c0 47.146-38.186 85.334-85.334 85.334h-170.666v127.998c0 47.146-38.186 85.334-85.334 85.334h-341.332c-47.146 0-85.334-38.186-85.334-85.334v-128h-170.666c-47.146 0-85.334-38.186-85.334-85.334v-639.998zM661.334 746.666h-298.668v59.734c0 26.026 20.908 46.934 46.934 46.934h204.8c26.026 0 46.934-20.908 46.934-46.934v-59.734zM302.934 448h102.4v102.4c0 26.026 20.906 46.934 46.934 46.934h119.466c26.026 0 46.934-20.906 46.934-46.934l-0.002-102.4h102.4c26.026 0 46.934-20.906 46.934-46.934v-119.466c0-26.026-20.906-46.934-46.934-46.934h-102.4v-102.4c0-26.026-20.906-46.934-46.934-46.934h-119.466c-26.026 0-46.934 20.906-46.934 46.934l0.002 102.4h-102.4c-26.026 0-46.934 20.906-46.934 46.934v119.466c0 26.028 20.906 46.934 46.934 46.934z" />
<glyph unicode="&#xe68f;" glyph-name="arrow-right3" d="M389.171 285.798c-13.722-13.875-13.722-36.301 0-50.125 13.67-13.875 35.891-13.875 49.613 0l196.096 200.038c13.722 13.875 13.722 36.301 0 50.125l-196.096 200.090c-13.722 13.875-35.891 13.875-49.613 0s-13.722-36.25-0.051-50.074l160.819-175.053-160.768-175.002z" />
<glyph unicode="&#xe690;" glyph-name="arrow-left4" d="M737.229 80.998c13.722-13.875 13.722-36.25 0-50.125s-35.891-13.875-49.613 0l-400.896 404.838c-13.722 13.875-13.722 36.301 0 50.125l400.896 404.89c13.722 13.875 35.891 13.875 49.613 0s13.722-36.25 0-50.125l-365.568-379.802 365.568-379.802z" />
<glyph unicode="&#xe691;" glyph-name="user, person" d="M889.366 222.080c-61.846 80.854-141.654 122.666-276.458 136.106-24.342 4.886-42.666 26.454-42.666 52.054 0 18.752 60.138 74.88 59.712 75.286 62.078 64.234 95.38 168.554 95.38 248.768 0 124.586-100.268 225.706-224 225.706s-224-101.12-224-225.706c0-80.64 32.426-185.6 95.146-249.814 0 0 59.946-55.488 59.946-74.218 0-27.114-20.48-49.706-46.934-52.906-132.054-13.866-210.986-55.466-272.214-135.254-17.704-23.062-27.304-69.356-27.944-94.102 0.214-6.4 0-106.666 0-106.666 0-47.146 38.186-85.334 85.334-85.334h661.334c47.146 0 85.334 38.186 85.334 85.334 0 0-0.214 100.266 0 106.666-0.622 24.746-10.242 71.040-27.97 94.080z" />
<glyph unicode="&#xe692;" glyph-name="user-man, male" d="M889.366 222.080c-44.8 58.454-98.986 96.426-176.618 117.952l-72.748-254.698c0-23.466-19.2-42.666-42.666-42.666s-42.666 19.2-42.666 42.666v202.666c0 29.44-23.894 53.334-53.334 53.334s-53.334-23.894-53.334-53.334v-202.666c0-23.466-19.2-42.666-42.666-42.666s-42.666 19.2-42.666 42.666l-72.746 254.698c-77.654-21.76-131.84-59.498-176.64-117.952-17.708-23.040-27.308-69.334-27.948-94.080v-106.666c0-47.146 38.186-85.334 85.334-85.334h661.334c47.146 0 85.334 38.186 85.334 85.334v106.666c-0.642 24.746-10.242 71.040-27.97 94.080zM501.334 426.666c143.786 0 224 183.040 224 307.628s-100.268 225.706-224 225.706-224-101.12-224-225.706 77.652-307.628 224-307.628z" />
<glyph unicode="&#xe693;" glyph-name="user-woman, female" d="M889.366 222.080c-24.96 32.618-52.886 58.88-86.4 79.552-51.82-114.966-167.446-194.966-301.632-194.966s-249.814 80-301.674 194.986c-33.28-20.694-61.418-46.934-86.378-79.552-17.708-23.060-27.33-69.354-27.948-94.1 0.214-6.4 0-106.666 0-106.666 0-47.146 38.186-85.334 85.334-85.334h661.334c47.146 0 85.334 38.186 85.334 85.334 0 0-0.214 100.266 0 106.666-0.642 24.746-10.242 71.040-27.97 94.080zM385.472 357.334c-17.898-1.92-34.986-4.266-51.178-7.040-18.56-4.694-32.64-21.546-32.64-41.6 0-8.32 2.346-15.766 6.4-22.4 44.8-57.388 114.752-94.294 193.28-94.294 76.586 0 144.854 34.986 189.866 89.814 5.952 7.254 9.366 16.64 9.366 26.88 0 20.906-15.146 38.4-35.2 42.026-16.618 3.008-34.134 5.568-52.886 7.488-24.106 4.458-42.24 21.526-42.24 47.126 0 23.466 17.472 41.366 40.96 44.374 2.326 0.426 7.872 0.618 7.872 0.618 114.794 8.128 192.874 31.382 244.266 75.754 7.062 7.466 11.328 17.494 11.328 28.586 0 22.186-16.854 40.32-38.4 42.454-63.36 12.8-110.932 65.28-110.932 128.214v8.96c0 124.586-100.268 225.706-224 225.706s-224-101.12-224-225.706v-8.96c0-62.934-47.574-115.414-110.934-128.214-21.546-2.134-38.4-20.266-38.4-42.454 0-11.094 4.266-21.12 11.286-28.586 51.648-44.374 129.706-67.626 244.714-75.754 3.414 0 6.634-0.214 9.6-0.618 23.872-3.414 38.806-20.48 38.806-44.374 0.020-27.308-20.438-44.8-46.934-48z" />
<glyph unicode="&#xe694;" glyph-name="arrow-down4" d="M132.198 686.029c-13.875 13.722-36.301 13.722-50.125 0-13.824-13.67-13.824-35.891 0-49.613l404.89-400.896c13.875-13.722 36.25-13.722 50.125 0l404.89 400.896c13.824 13.722 13.875 35.891 0 49.613s-36.352 13.722-50.125 0.051l-379.853-365.619-379.802 365.568z" />
<glyph unicode="&#xe695;" glyph-name="arrow-up4" d="M891.802 235.571c13.875-13.722 36.301-13.722 50.125 0 13.875 13.722 13.875 35.891 0 49.613l-404.89 400.896c-13.824 13.722-36.25 13.722-50.074 0l-404.89-400.896c-13.824-13.722-13.875-35.891 0-49.613s36.25-13.722 50.125 0l379.802 365.619 379.802-365.619z" />
<glyph unicode="&#xe696;" glyph-name="arrow-left2" d="M585.574 741.581c-21.402-20.89-230.502-240.435-230.502-240.435-11.418-11.162-17.101-25.754-17.101-40.346s5.683-29.184 17.101-40.346c0 0 209.101-219.546 230.502-240.384 21.402-20.89 59.904-22.323 82.739 0 22.784 22.272 24.576 53.35-0.051 80.64l-191.846 200.090 191.846 200.090c24.627 27.341 22.835 58.419 0.051 80.691-22.886 22.272-61.389 20.89-82.739 0z" />
<glyph unicode="&#xe697;" glyph-name="arrow-down2" d="M792.73 534.374c-20.838-21.402-240.384-230.554-240.384-230.554-11.162-11.418-25.754-17.101-40.346-17.101-14.643 0-29.235 5.683-40.346 17.101 0 0-219.546 209.152-240.435 230.554-20.838 21.402-22.272 59.853 0 82.739 22.323 22.835 53.402 24.627 80.691 0l200.090-191.898 200.038 191.846c27.341 24.627 58.47 22.835 80.691 0 22.323-22.835 20.941-61.338 0-82.688z" />
<glyph unicode="&#xe698;" glyph-name="arrow-up2" d="M792.73 387.226c-20.838 21.402-240.384 230.502-240.384 230.502-11.162 11.418-25.754 17.152-40.346 17.152-14.643 0-29.235-5.734-40.346-17.152 0 0-219.546-209.101-240.435-230.502-20.838-21.402-22.272-59.904 0-82.739 22.323-22.784 53.402-24.627 80.691 0l200.090 191.846 200.038-191.846c27.341-24.627 58.47-22.784 80.691 0 22.323 22.886 20.941 61.389 0 82.739z" />
<glyph unicode="&#xe699;" glyph-name="arrow-right2" d="M438.426 741.581c21.402-20.89 230.502-240.435 230.502-240.435 11.469-11.162 17.152-25.754 17.152-40.346s-5.683-29.184-17.152-40.346c0 0-209.101-219.546-230.502-240.384-21.402-20.89-59.853-22.323-82.739 0-22.835 22.272-24.627 53.35 0 80.64l191.898 200.090-191.846 200.090c-24.627 27.341-22.835 58.419 0 80.691s61.338 20.89 82.688 0z" />
<glyph unicode="&#xe69a;" glyph-name="arrow-left3" d="M634.829 285.798c13.722-13.875 13.722-36.301 0-50.125-13.722-13.875-35.891-13.875-49.613 0l-196.096 200.038c-13.722 13.875-13.722 36.301 0 50.125l196.096 200.090c13.722 13.875 35.891 13.875 49.613 0s13.722-36.25 0-50.125l-160.768-175.002 160.768-175.002z" />
<glyph unicode="&#xe69b;" glyph-name="arrow-up3" d="M336.947 337.971c-13.875-13.722-36.25-13.722-50.125 0-13.824 13.722-13.875 35.891 0 49.664l200.090 195.994c13.875 13.722 36.301 13.722 50.125 0l200.090-196.045c13.875-13.773 13.875-35.942 0-49.664s-36.25-13.722-50.125 0l-175.053 160.819-175.002-160.768z" />
<glyph unicode="&#xe69c;" glyph-name="bookmarks" d="M256 832v-896l320 320 320-320v896zM768 960h-640v-896l64 64v768h576z" />
<glyph unicode="&#xf005;" glyph-name="star" horiz-adv-x="951" d="M0 581.143q0 21.143 32 26.286l286.857 41.714 128.571 260q10.857 23.429 28 23.429t28-23.429l128.571-260 286.857-41.714q32-5.143 32-26.286 0-12.571-14.857-27.429l-207.429-202.286 49.143-285.714q0.571-4 0.571-11.429 0-12-6-20.286t-17.429-8.286q-10.857 0-22.857 6.857l-256.571 134.857-256.571-134.857q-12.571-6.857-22.857-6.857-12 0-18 8.286t-6 20.286q0 3.429 1.143 11.429l49.143 285.714-208 202.286q-14.286 15.429-14.286 27.429z" />
<glyph unicode="&#xf006;" glyph-name="star1, star-hollow" horiz-adv-x="951" d="M0 581.143q0 21.143 32 26.286l286.857 41.714 128.571 260q10.857 23.429 28 23.429t28-23.429l128.571-260 286.857-41.714q32-5.143 32-26.286 0-12.571-14.857-27.429l-207.429-202.286 49.143-285.714q0.571-4 0.571-11.429 0-28.571-23.429-28.571-10.857 0-22.857 6.857l-256.571 134.857-256.571-134.857q-12.571-6.857-22.857-6.857-12 0-18 8.286t-6 20.286q0 3.429 1.143 11.429l49.143 285.714-208 202.286q-14.286 15.429-14.286 27.429zM126.286 546.857l174.857-169.714-41.714-240.571 216 113.714 215.429-113.714-41.143 240.571 174.857 169.714-241.143 35.429-108 218.286-108-218.286z" />
<glyph unicode="&#xf040;" glyph-name="pencil2" d="M0 0v237.714l475.429 475.429 237.714-237.714-475.429-475.429h-237.714zM73.143 146.286h73.143v-73.143h61.143l52 52-134.286 134.286-52-52v-61.143zM170.286 292.571q0-12.571 12.571-12.571 5.714 0 9.714 4l309.714 309.714q4 4 4 9.714 0 12.571-12.571 12.571-5.714 0-9.714-4l-309.714-309.714q-4-4-4-9.714zM512 749.714l94.857 94.286q20.571 21.714 51.429 21.714 30.286 0 52-21.714l134.286-133.714q21.143-22.286 21.143-52 0-30.286-21.143-51.429l-94.857-94.857z" />
<glyph unicode="&#xf089;" glyph-name="star-half" horiz-adv-x="512" d="M0 581.143q0 21.143 32 26.286l286.857 41.714 128.571 260q10.857 23.429 28 23.429v-765.143l-256.571-134.857q-12.571-6.857-22.857-6.857-12 0-18 8.286t-6 20.286q0 3.429 1.143 11.429l49.143 285.714-208 202.286q-14.286 15.429-14.286 27.429z" />
<glyph unicode="&#xf123;" glyph-name="star-half-empty" horiz-adv-x="951" d="M1.143 587.714q5.143 15.714 30.857 19.714l286.857 41.714 128.571 260q11.429 23.429 28 23.429 16 0 28-23.429l128.571-260 286.857-41.714q25.714-4 30.857-19.714t-13.714-34l-207.429-202.286 49.143-285.714q2.857-18.857-3.429-29.429t-19.429-10.571q-9.714 0-22.857 6.857l-256.571 134.857-256.571-134.857q-13.143-6.857-22.857-6.857-13.143 0-19.429 10.571t-3.429 29.429l49.143 285.714-208 202.286q-18.286 18.286-13.143 34zM475.429 250.286l33.714-17.714 181.714-96-34.286 202.857-6.857 37.714 28 26.857 146.857 142.857-241.143 35.429-17.143 34.286-90.857 184v-550.286z" />
<glyph unicode="&#xf1d8;" glyph-name="send" d="M0 363.428q-1.143 22.857 18.286 33.714l950.857 548.571q8.571 5.143 18.286 5.143 11.429 0 20.571-6.286 18.857-13.714 15.429-36.571l-146.286-877.714q-2.857-16.571-18.286-25.714-8-4.571-17.714-4.571-6.286 0-13.714 2.857l-258.857 105.714-138.286-168.571q-10.286-13.143-28-13.143-7.429 0-12.571 2.286-10.857 4-17.429 13.429t-6.571 20.857v199.429l493.714 605.143-610.857-528.571-225.714 92.571q-21.143 8-22.857 31.429z" />
</font>
</defs>
</svg>
